<svg width="969" height="456" viewBox="0 0 969 456" fill="none" xmlns="http://www.w3.org/2000/svg">
<g clip-path="url(#clip0_1140_6189)">
<rect width="969" height="456" fill="url(#paint0_linear_1140_6189)"/>
<g clip-path="url(#clip1_1140_6189)">
<path d="M888.07 45.48V409.78C888.07 420.12 880.98 428.51 872.25 428.51H336.25C327.51 428.51 320.43 420.12 320.43 409.78V45.48C320.43 35.14 327.51 26.75 336.25 26.75H872.25C880.98 26.75 888.07 35.13 888.07 45.48Z" fill="white" stroke="#D3DAEE" stroke-width="1.5" stroke-miterlimit="10"/>
<path d="M888.07 42.57V58.57H320.4V42.57C320.4 38.3743 322.067 34.3504 325.034 31.3836C328 28.4167 332.024 26.75 336.22 26.75H872.22C876.419 26.7473 880.448 28.4123 883.42 31.3788C886.392 34.3454 888.065 38.3707 888.07 42.57Z" fill="#4554A4" stroke="#D3DAEE" stroke-miterlimit="10"/>
<path d="M343.95 48.5495C345.116 48.5515 346.256 48.2075 347.226 47.561C348.196 46.9146 348.953 45.9948 349.4 44.9182C349.847 43.8415 349.964 42.6564 349.737 41.5129C349.51 40.3694 348.949 39.319 348.125 38.4947C347.301 37.6703 346.25 37.1092 345.107 36.8822C343.963 36.6553 342.778 36.7728 341.701 37.2198C340.625 37.6668 339.705 38.4233 339.059 39.3935C338.412 40.3636 338.068 41.5037 338.07 42.6695C338.073 44.2282 338.693 45.7222 339.795 46.8244C340.897 47.9265 342.391 48.5469 343.95 48.5495Z" fill="#D3DAEE"/>
<path d="M361.62 48.5495C362.785 48.5495 363.925 48.2038 364.893 47.5562C365.862 46.9085 366.617 45.9881 367.063 44.9112C367.508 43.8344 367.624 42.6496 367.396 41.5068C367.168 40.3639 366.606 39.3145 365.781 38.4911C364.957 37.6678 363.906 37.1076 362.763 36.8815C361.62 36.6554 360.435 36.7734 359.359 37.2208C358.283 37.6681 357.364 38.4246 356.718 39.3945C356.072 40.3644 355.728 41.5042 355.73 42.6695C355.73 43.4426 355.882 44.208 356.179 44.922C356.475 45.6361 356.909 46.2847 357.456 46.8309C358.003 47.377 358.652 47.8099 359.367 48.1048C360.081 48.3997 360.847 48.5508 361.62 48.5495Z" fill="#D3DAEE"/>
<path d="M379.29 48.5495C380.455 48.5495 381.595 48.2038 382.563 47.5562C383.532 46.9085 384.287 45.9881 384.733 44.9112C385.178 43.8344 385.294 42.6496 385.066 41.5068C384.838 40.3639 384.276 39.3145 383.451 38.4911C382.627 37.6678 381.576 37.1076 380.433 36.8815C379.29 36.6554 378.105 36.7734 377.029 37.2208C375.953 37.6681 375.034 38.4246 374.388 39.3945C373.742 40.3644 373.398 41.5042 373.4 42.6695C373.4 43.4426 373.552 44.208 373.849 44.922C374.145 45.6361 374.579 46.2847 375.126 46.8309C375.673 47.377 376.322 47.8099 377.037 48.1048C377.751 48.3997 378.517 48.5508 379.29 48.5495Z" fill="#D3DAEE"/>
<path d="M399.51 178.76H391.95C391.088 178.76 390.261 178.418 389.652 177.809C389.042 177.199 388.7 176.372 388.7 175.51V167.94C388.699 167.513 388.782 167.09 388.945 166.695C389.108 166.3 389.347 165.941 389.649 165.639C389.951 165.337 390.31 165.098 390.705 164.935C391.1 164.772 391.523 164.689 391.95 164.69H399.51C399.937 164.689 400.36 164.772 400.755 164.935C401.15 165.098 401.509 165.337 401.811 165.639C402.113 165.941 402.352 166.3 402.515 166.695C402.678 167.09 402.761 167.513 402.76 167.94V175.51C402.761 175.938 402.678 176.361 402.515 176.756C402.352 177.151 402.113 177.509 401.811 177.811C401.509 178.114 401.15 178.353 400.755 178.516C400.36 178.679 399.937 178.762 399.51 178.76Z" fill="white" stroke="#C4D3EC" stroke-linecap="round" stroke-linejoin="round"/>
<path d="M407.45 170.05H414.14L410.8 174.05L407.45 170.05Z" fill="#C4D3EC" stroke="#C4D3EC" stroke-linecap="round" stroke-linejoin="round"/>
<path d="M443.3 165.48L442.97 169.06C442.955 169.227 442.875 169.382 442.749 169.491C442.622 169.601 442.458 169.658 442.29 169.65L438.7 169.45C438.575 169.444 438.455 169.401 438.356 169.325C438.257 169.25 438.183 169.146 438.145 169.027C438.107 168.908 438.106 168.78 438.143 168.661C438.179 168.542 438.252 168.437 438.35 168.36L439.51 167.36C438.542 166.554 437.338 166.087 436.08 166.03C434.474 165.948 432.897 166.488 431.679 167.538C430.461 168.589 429.695 170.069 429.54 171.67C429.462 172.444 429.542 173.226 429.776 173.968C430.01 174.711 430.393 175.398 430.901 175.987C431.409 176.577 432.032 177.056 432.731 177.397C433.431 177.738 434.193 177.933 434.97 177.97C436.347 178.034 437.706 177.645 438.839 176.86C439.972 176.076 440.816 174.941 441.24 173.63L443.11 174.16C442.639 175.611 441.777 176.905 440.62 177.9C439.454 178.833 438.045 179.413 436.559 179.57C435.073 179.727 433.574 179.454 432.239 178.785C430.903 178.116 429.788 177.077 429.025 175.793C428.261 174.509 427.883 173.033 427.933 171.54C427.983 170.047 428.461 168.6 429.309 167.37C430.157 166.14 431.34 165.179 432.717 164.601C434.095 164.023 435.609 163.853 437.081 164.109C438.552 164.366 439.92 165.039 441.02 166.05L442.26 164.97C442.352 164.884 442.468 164.828 442.592 164.81C442.716 164.792 442.843 164.811 442.956 164.867C443.068 164.922 443.162 165.01 443.223 165.12C443.285 165.229 443.311 165.355 443.3 165.48Z" fill="#C4D3EC"/>
<path d="M462.68 168.02C463.011 168.02 463.334 167.921 463.609 167.738C463.884 167.554 464.098 167.292 464.224 166.986C464.35 166.681 464.382 166.344 464.317 166.02C464.252 165.696 464.092 165.398 463.857 165.165C463.623 164.932 463.324 164.774 463 164.711C462.675 164.647 462.339 164.682 462.034 164.81C461.729 164.938 461.469 165.153 461.287 165.429C461.104 165.705 461.008 166.029 461.01 166.36C461.01 166.579 461.053 166.795 461.137 166.997C461.221 167.199 461.345 167.383 461.5 167.537C461.655 167.691 461.839 167.813 462.042 167.896C462.244 167.979 462.461 168.021 462.68 168.02Z" fill="#C4D3EC"/>
<path d="M462.68 173.74C463.01 173.74 463.333 173.642 463.608 173.459C463.882 173.275 464.096 173.015 464.223 172.709C464.349 172.404 464.382 172.069 464.318 171.745C464.253 171.421 464.094 171.123 463.861 170.89C463.627 170.656 463.33 170.497 463.006 170.432C462.682 170.368 462.346 170.401 462.041 170.528C461.736 170.654 461.475 170.868 461.291 171.143C461.108 171.417 461.01 171.74 461.01 172.07C461.01 172.29 461.053 172.507 461.137 172.709C461.221 172.912 461.344 173.096 461.499 173.251C461.654 173.406 461.838 173.529 462.041 173.613C462.244 173.697 462.461 173.74 462.68 173.74Z" fill="#C4D3EC"/>
<path d="M462.68 179.45C463.01 179.45 463.333 179.352 463.608 179.169C463.882 178.985 464.096 178.725 464.223 178.419C464.349 178.114 464.382 177.779 464.318 177.455C464.253 177.131 464.094 176.833 463.861 176.599C463.627 176.366 463.33 176.207 463.006 176.142C462.682 176.078 462.346 176.111 462.041 176.237C461.736 176.364 461.475 176.578 461.291 176.853C461.108 177.127 461.01 177.45 461.01 177.78C461.01 178 461.053 178.217 461.137 178.419C461.221 178.622 461.344 178.806 461.499 178.961C461.654 179.116 461.838 179.239 462.041 179.323C462.244 179.407 462.461 179.45 462.68 179.45Z" fill="#C4D3EC"/>
<path d="M320.4 117.49H888.07" stroke="#C4D3EC" stroke-width="1.6" stroke-linecap="round" stroke-linejoin="round"/>
<path d="M779.43 101.23H467.22C465.173 101.23 463.209 100.417 461.761 98.9689C460.313 97.5212 459.5 95.5576 459.5 93.5101V82.0501C459.505 80.0042 460.32 78.0437 461.767 76.597C463.214 75.1504 465.174 74.3354 467.22 74.3301H779.43C781.476 74.3327 783.437 75.1473 784.882 76.5947C786.328 78.0422 787.14 80.0043 787.14 82.0501V93.5101C787.135 95.5542 786.321 97.5132 784.877 98.9596C783.432 100.406 781.474 101.222 779.43 101.23Z" fill="white" stroke="#C4D3EC" stroke-linecap="round" stroke-linejoin="round"/>
<path d="M772.72 89.5901L769.87 86.7901C769.79 86.7071 769.736 86.6023 769.714 86.4888C769.693 86.3753 769.706 86.2581 769.75 86.1516C769.795 86.0452 769.87 85.9542 769.966 85.8899C770.062 85.8256 770.175 85.791 770.29 85.7901H775.9C776.017 85.7881 776.132 85.8214 776.229 85.8856C776.327 85.9498 776.403 86.042 776.447 86.15C776.491 86.2581 776.502 86.377 776.477 86.4912C776.453 86.6054 776.395 86.7096 776.31 86.7901L773.51 89.5901C773.402 89.6878 773.261 89.7419 773.115 89.7419C772.969 89.7419 772.828 89.6878 772.72 89.5901Z" fill="#C4D3EC"/>
<path d="M848.07 104.52C851.336 104.522 854.53 103.555 857.246 101.742C859.963 99.9284 862.081 97.3499 863.331 94.3327C864.582 91.3155 864.91 87.9951 864.273 84.7915C863.637 81.588 862.064 78.6452 859.754 76.3357C857.445 74.0261 854.502 72.4535 851.299 71.8168C848.095 71.18 844.775 71.5078 841.757 72.7587C838.74 74.0095 836.162 76.1272 834.348 78.8438C832.535 81.5604 831.568 84.7538 831.57 88.02C831.573 92.3953 833.312 96.5906 836.406 99.6843C839.499 102.778 843.695 104.517 848.07 104.52Z" fill="#C4D3EC"/>
<path d="M850.81 97.2801L850.86 97.2238C850.887 97.2623 850.914 97.301 850.94 97.3401H850.87L850.81 97.2801Z" fill="#E0E0E0"/>
<path d="M817.44 75.5498H799.22C798.291 75.5498 797.4 75.9182 796.742 76.5743C796.084 77.2304 795.713 78.1206 795.71 79.0498V97.2798C795.71 98.2107 796.08 99.1035 796.738 99.7617C797.396 100.42 798.289 100.79 799.22 100.79H817.44C818.371 100.79 819.264 100.42 819.922 99.7617C820.58 99.1035 820.95 98.2107 820.95 97.2798V79.0498C820.947 78.1206 820.576 77.2304 819.918 76.5743C819.26 75.9182 818.369 75.5498 817.44 75.5498ZM798.37 97.2798V89.0998H810.19V98.0998H799.19C798.975 98.0923 798.771 98.0035 798.619 97.8514C798.466 97.6992 798.378 97.4949 798.37 97.2798ZM818.3 97.2798C818.297 97.5062 818.206 97.7223 818.045 97.8815C817.884 98.0406 817.666 98.1298 817.44 98.1298H812.87V89.1298H818.33L818.3 97.2798ZM818.3 86.4498H798.37V79.0498C798.37 78.8244 798.46 78.6082 798.619 78.4488C798.778 78.2894 798.995 78.1998 799.22 78.1998H817.44C817.666 78.1998 817.884 78.289 818.045 78.4482C818.206 78.6073 818.297 78.8235 818.3 79.0498V86.4498Z" fill="url(#paint1_linear_1140_6189)"/>
<path d="M471.68 90.97C472.737 90.972 473.77 90.6605 474.65 90.0749C475.529 89.4894 476.215 88.6561 476.621 87.6805C477.026 86.7049 477.134 85.6309 476.929 84.5944C476.724 83.5579 476.216 82.6054 475.47 81.8576C474.723 81.1098 473.772 80.6002 472.736 80.3934C471.699 80.1865 470.625 80.2917 469.649 80.6956C468.672 81.0994 467.838 81.7839 467.251 82.6622C466.663 83.5406 466.35 84.5735 466.35 85.63C466.35 87.0446 466.911 88.4013 467.911 89.4025C468.91 90.4036 470.266 90.9674 471.68 90.97Z" fill="white" stroke="#C4D3EC" stroke-width="1.5" stroke-linecap="round" stroke-linejoin="round"/>
<path d="M475.46 89.4004L481.1 95.0504" stroke="#C4D3EC" stroke-width="2.2" stroke-linecap="round" stroke-linejoin="round"/>
<path d="M395.48 85.7203C395.528 86.658 395.384 87.5957 395.057 88.4759C394.731 89.3562 394.228 90.1607 393.58 90.8403C392.856 91.5993 391.978 92.1953 391.006 92.5885C390.033 92.9816 388.988 93.1629 387.94 93.1203C385.818 93.1203 383.783 92.2774 382.283 90.7771C380.783 89.2768 379.94 87.242 379.94 85.1203C379.94 82.9985 380.783 80.9637 382.283 79.4634C383.783 77.9631 385.818 77.1203 387.94 77.1203C389.032 77.1135 390.115 77.3172 391.13 77.7203C392.076 78.0791 392.923 78.6585 393.6 79.4103L392.18 80.8303C391.691 80.2366 391.057 79.7787 390.34 79.5003C389.585 79.1654 388.766 78.995 387.94 79.0003C387.152 78.9847 386.369 79.1311 385.64 79.4304C384.91 79.7297 384.25 80.1755 383.7 80.7403C382.6 81.9378 381.99 83.5044 381.99 85.1303C381.99 86.7562 382.6 88.3228 383.7 89.5203C384.764 90.5529 386.165 91.1669 387.646 91.2495C389.127 91.3322 390.587 90.878 391.76 89.9703C392.272 89.5281 392.691 88.988 392.991 88.3819C393.292 87.7757 393.468 87.1156 393.51 86.4403H387.94V84.5703H395.38C395.447 84.95 395.48 85.3348 395.48 85.7203ZM399.48 92.7203H397.48V82.2703H399.36V83.7303H399.45C399.797 83.1818 400.289 82.7391 400.87 82.4503C401.461 82.103 402.134 81.9199 402.82 81.9199C403.506 81.9199 404.179 82.103 404.77 82.4503C405.344 82.7941 405.793 83.3128 406.05 83.9303C406.423 83.3045 406.956 82.7894 407.594 82.4378C408.232 82.0863 408.952 81.9111 409.68 81.9303C410.201 81.8972 410.722 81.9805 411.206 82.1743C411.691 82.368 412.126 82.6673 412.48 83.0503C413.196 83.9458 413.553 85.076 413.48 86.2203V92.7703H411.48V86.5203C411.549 85.7726 411.358 85.024 410.94 84.4003C410.712 84.158 410.43 83.9715 410.118 83.8553C409.806 83.7391 409.471 83.6963 409.14 83.7303C408.765 83.7324 408.396 83.8244 408.064 83.9983C407.731 84.1723 407.446 84.4233 407.23 84.7303C406.717 85.3744 406.445 86.1771 406.46 87.0003V92.8003H404.46V86.5203C404.526 85.7742 404.339 85.0275 403.93 84.4003C403.702 84.158 403.42 83.9715 403.108 83.8553C402.796 83.7391 402.461 83.6963 402.13 83.7303C401.755 83.7316 401.385 83.8232 401.053 83.9972C400.721 84.1713 400.435 84.4227 400.22 84.7303C399.707 85.3744 399.435 86.1771 399.45 87.0003L399.48 92.7203ZM417.08 89.5103C417.08 89.7598 417.138 90.0059 417.251 90.2284C417.364 90.4508 417.528 90.6434 417.73 90.7903C418.167 91.1382 418.712 91.3222 419.27 91.3103C420.099 91.3075 420.894 90.9767 421.48 90.3903C421.791 90.12 422.041 89.7867 422.213 89.4126C422.385 89.0386 422.476 88.6322 422.48 88.2203C421.729 87.6982 420.823 87.4446 419.91 87.5003C419.2 87.4774 418.501 87.6767 417.91 88.0703C417.661 88.2301 417.457 88.4508 417.317 88.7116C417.177 88.9723 417.106 89.2644 417.11 89.5603L417.08 89.5103ZM419.63 81.8803C420.89 81.8078 422.128 82.2313 423.08 83.0603C423.51 83.4682 423.847 83.9647 424.066 84.5156C424.285 85.0664 424.382 85.6583 424.35 86.2503V92.7203H422.46V91.3203H422.38C422.039 91.8769 421.559 92.3354 420.988 92.6509C420.416 92.9664 419.773 93.1282 419.12 93.1203C418.06 93.1592 417.023 92.8028 416.21 92.1203C415.838 91.8046 415.541 91.4103 415.341 90.9659C415.14 90.5214 415.041 90.0379 415.05 89.5503C415.034 89.0513 415.136 88.5556 415.348 88.1037C415.56 87.6517 415.876 87.2565 416.27 86.9503C417.226 86.2556 418.389 85.9034 419.57 85.9503C420.573 85.9091 421.569 86.1297 422.46 86.5903V86.1403C422.463 85.8097 422.392 85.4827 422.252 85.1832C422.111 84.8838 421.906 84.6197 421.65 84.4103C421.131 83.9305 420.447 83.6691 419.74 83.6803C419.222 83.6668 418.709 83.7878 418.252 84.0314C417.794 84.275 417.408 84.6329 417.13 85.0703L415.39 83.9803C415.867 83.302 416.51 82.7575 417.258 82.3986C418.005 82.0397 418.832 81.8784 419.66 81.9303L419.63 81.8803ZM429.12 78.6003C429.127 78.7865 429.094 78.9721 429.023 79.1445C428.952 79.317 428.846 79.4724 428.71 79.6003C428.513 79.7932 428.264 79.9237 427.993 79.9754C427.722 80.0271 427.442 79.9978 427.188 79.891C426.934 79.7842 426.717 79.6047 426.564 79.3751C426.412 79.1455 426.33 78.876 426.33 78.6003C426.33 78.3246 426.412 78.0551 426.564 77.8255C426.717 77.5959 426.934 77.4164 427.188 77.3096C427.442 77.2028 427.722 77.1734 427.993 77.2251C428.264 77.2768 428.513 77.4074 428.71 77.6003C428.858 77.7309 428.974 77.8932 429.05 78.075C429.126 78.2568 429.16 78.4534 429.15 78.6503L429.12 78.6003ZM428.71 82.2203V92.7203H426.71V82.2703L428.71 82.2203ZM433.25 77.3803V92.7703H431.25V77.4303L433.25 77.3803Z" fill="#4554A4"/>
<path d="M336.58 98.9802H342.19V85.4502L334.27 79.4502V96.6602C334.269 96.9644 334.328 97.2658 334.443 97.5473C334.559 97.8287 334.728 98.0845 334.943 98.3001C335.158 98.5156 335.413 98.6867 335.694 98.8034C335.975 98.9201 336.276 98.9802 336.58 98.9802Z" fill="#547DBE"/>
<path d="M361.32 98.9805H366.93C367.575 98.9778 368.193 98.7196 368.649 98.2623C369.104 97.805 369.36 97.1859 369.36 96.5405V79.4805L361.36 85.4805L361.32 98.9805Z" fill="#32A852"/>
<path d="M361.32 75.0902V85.4502L369.32 79.4502V76.1902C369.32 75.2676 368.959 74.3817 368.315 73.7219C367.67 73.0622 366.792 72.6811 365.87 72.6602C365.08 72.6587 364.311 72.915 363.68 73.3902L361.32 75.0902Z" fill="#F8BB15"/>
<path d="M342.19 85.4498V75.0898L351.81 82.2798L361.44 75.0898V85.4498L351.81 92.6398L342.19 85.4498Z" fill="#E94434"/>
<path d="M334.27 76.1902V79.3602L342.27 85.3602V75.0902L339.95 73.3902C339.577 73.1016 339.15 72.8911 338.693 72.7713C338.237 72.6516 337.762 72.6249 337.295 72.6931C336.828 72.7612 336.38 72.9227 335.977 73.1679C335.574 73.4131 335.225 73.737 334.95 74.1202C334.495 74.713 334.255 75.443 334.27 76.1902Z" fill="#C32327"/>
<path d="M345.64 159.36C348.856 159.36 352 158.406 354.674 156.62C357.347 154.833 359.432 152.293 360.662 149.322C361.893 146.351 362.215 143.082 361.588 139.928C360.96 136.774 359.412 133.876 357.138 131.602C354.864 129.328 351.966 127.78 348.812 127.152C345.658 126.525 342.389 126.847 339.418 128.078C336.446 129.308 333.907 131.392 332.12 134.066C330.334 136.74 329.38 139.884 329.38 143.1C329.38 147.412 331.093 151.548 334.142 154.597C337.192 157.647 341.328 159.36 345.64 159.36Z" fill="#ECEFF8" stroke="#C4D3EC" stroke-width="1.3" stroke-linecap="round" stroke-linejoin="round"/>
<path d="M337.63 149.04L337.44 150.19C337.422 150.34 337.439 150.492 337.489 150.635C337.538 150.778 337.619 150.907 337.726 151.014C337.833 151.121 337.963 151.202 338.105 151.252C338.248 151.301 338.4 151.318 338.55 151.3L339.71 151.11C340.609 150.964 341.439 150.537 342.08 149.89L351.45 140.53L352.24 139.74L353.58 138.4C353.752 138.215 353.847 137.972 353.847 137.72C353.847 137.468 353.752 137.225 353.58 137.04L351.71 135.17C351.525 134.999 351.282 134.903 351.03 134.903C350.778 134.903 350.535 134.999 350.35 135.17L349.01 136.51L348.22 137.3L338.87 146.67C338.213 147.306 337.778 148.137 337.63 149.04ZM350.63 139.74L341.26 149.1C340.781 149.583 340.161 149.901 339.49 150.01L338.55 150.17L338.7 149.22C338.813 148.55 339.131 147.932 339.61 147.45L348.97 138.09L350.63 139.74Z" fill="#4554A4"/>
<path d="M342.68 227.65H339.38C338.781 227.65 338.206 227.412 337.782 226.988C337.358 226.564 337.12 225.989 337.12 225.39V222.09C337.12 221.491 337.358 220.916 337.782 220.492C338.206 220.068 338.781 219.83 339.38 219.83H342.68C343.279 219.83 343.854 220.068 344.278 220.492C344.702 220.916 344.94 221.491 344.94 222.09V225.39C344.94 225.989 344.702 226.564 344.278 226.988C343.854 227.412 343.279 227.65 342.68 227.65ZM339.38 221.78C339.298 221.78 339.219 221.813 339.161 221.871C339.103 221.929 339.07 222.008 339.07 222.09V225.39C339.07 225.472 339.103 225.551 339.161 225.609C339.219 225.667 339.298 225.7 339.38 225.7H342.68C342.762 225.7 342.841 225.667 342.899 225.609C342.957 225.551 342.99 225.472 342.99 225.39V222.09C342.99 222.008 342.957 221.929 342.899 221.871C342.841 221.813 342.762 221.78 342.68 221.78H339.38Z" fill="#C4D3EC"/>
<path d="M352.08 227.65H348.77C348.171 227.65 347.596 227.412 347.172 226.988C346.748 226.564 346.51 225.989 346.51 225.39V222.09C346.523 221.499 346.767 220.937 347.189 220.524C347.612 220.111 348.179 219.88 348.77 219.88H352.08C352.679 219.88 353.254 220.118 353.678 220.542C354.102 220.966 354.34 221.54 354.34 222.14V225.44C354.327 226.031 354.083 226.593 353.661 227.006C353.238 227.419 352.671 227.65 352.08 227.65ZM348.77 221.78C348.688 221.78 348.609 221.813 348.551 221.871C348.493 221.929 348.46 222.008 348.46 222.09V225.39C348.46 225.472 348.493 225.551 348.551 225.609C348.609 225.667 348.688 225.7 348.77 225.7H352.08C352.162 225.7 352.241 225.667 352.299 225.609C352.357 225.551 352.39 225.472 352.39 225.39V222.09C352.39 222.008 352.357 221.929 352.299 221.871C352.241 221.813 352.162 221.78 352.08 221.78H348.77Z" fill="#C4D3EC"/>
<path d="M342.68 237.05H339.38C338.781 237.05 338.206 236.812 337.782 236.389C337.358 235.965 337.12 235.39 337.12 234.79V231.49C337.12 230.891 337.358 230.316 337.782 229.892C338.206 229.469 338.781 229.23 339.38 229.23H342.68C343.279 229.23 343.854 229.469 344.278 229.892C344.702 230.316 344.94 230.891 344.94 231.49V234.79C344.94 235.39 344.702 235.965 344.278 236.389C343.854 236.812 343.279 237.05 342.68 237.05ZM339.38 231.17C339.298 231.17 339.219 231.203 339.161 231.261C339.103 231.319 339.07 231.398 339.07 231.48V234.79C339.07 234.873 339.103 234.952 339.161 235.01C339.219 235.068 339.298 235.1 339.38 235.1H342.68C342.762 235.1 342.841 235.068 342.899 235.01C342.957 234.952 342.99 234.873 342.99 234.79V231.48C342.99 231.398 342.957 231.319 342.899 231.261C342.841 231.203 342.762 231.17 342.68 231.17H339.38Z" fill="#C4D3EC"/>
<path d="M352.08 237.05H348.77C348.171 237.05 347.596 236.812 347.172 236.389C346.748 235.965 346.51 235.39 346.51 234.79V231.49C346.51 230.891 346.748 230.316 347.172 229.892C347.596 229.469 348.171 229.23 348.77 229.23H352.08C352.679 229.23 353.254 229.469 353.678 229.892C354.102 230.316 354.34 230.891 354.34 231.49V234.79C354.34 235.39 354.102 235.965 353.678 236.389C353.254 236.812 352.679 237.05 352.08 237.05ZM348.77 231.17C348.688 231.17 348.609 231.203 348.551 231.261C348.493 231.319 348.46 231.398 348.46 231.48V234.79C348.46 234.873 348.493 234.952 348.551 235.01C348.609 235.068 348.688 235.1 348.77 235.1H352.08C352.162 235.1 352.241 235.068 352.299 235.01C352.357 234.952 352.39 234.873 352.39 234.79V231.48C352.39 231.398 352.357 231.319 352.299 231.261C352.241 231.203 352.162 231.17 352.08 231.17H348.77Z" fill="#C4D3EC"/>
<path d="M343.47 274.16H340.04C339.711 274.161 339.386 274.097 339.082 273.972C338.778 273.847 338.502 273.663 338.269 273.431C338.037 273.198 337.853 272.922 337.728 272.618C337.602 272.314 337.539 271.989 337.54 271.66V268.88C337.54 268.217 337.803 267.581 338.272 267.112C338.741 266.643 339.377 266.38 340.04 266.38H343.47V274.16ZM340.04 268.33C339.968 268.33 339.896 268.344 339.83 268.372C339.763 268.399 339.702 268.44 339.651 268.491C339.6 268.542 339.56 268.603 339.532 268.669C339.504 268.736 339.49 268.808 339.49 268.88V271.66C339.49 271.732 339.504 271.804 339.532 271.87C339.56 271.937 339.6 271.998 339.651 272.049C339.702 272.1 339.763 272.14 339.83 272.168C339.896 272.196 339.968 272.21 340.04 272.21H341.52V268.33H340.04Z" fill="#C4D3EC"/>
<path d="M351.42 274.16H347.98V266.38H351.42C352.083 266.38 352.719 266.643 353.188 267.112C353.657 267.581 353.92 268.217 353.92 268.88V271.67C353.917 272.331 353.653 272.965 353.184 273.431C352.716 273.898 352.081 274.16 351.42 274.16ZM349.93 272.21H351.41C351.483 272.211 351.555 272.198 351.622 272.171C351.689 272.144 351.751 272.103 351.802 272.052C351.853 272 351.894 271.939 351.921 271.872C351.948 271.805 351.961 271.732 351.96 271.66V268.88C351.961 268.807 351.948 268.735 351.921 268.668C351.894 268.6 351.853 268.539 351.802 268.488C351.751 268.437 351.689 268.396 351.622 268.369C351.555 268.342 351.483 268.329 351.41 268.33H349.93V272.21Z" fill="#C4D3EC"/>
<path d="M351.36 277H345.56V275.05H351.36C351.439 275.05 351.517 275.035 351.59 275.004C351.662 274.974 351.729 274.93 351.784 274.874C351.84 274.819 351.884 274.753 351.914 274.68C351.945 274.607 351.96 274.529 351.96 274.45V271.66H353.96V274.45C353.959 274.789 353.89 275.124 353.759 275.436C353.627 275.748 353.434 276.031 353.193 276.268C352.951 276.505 352.664 276.692 352.35 276.818C352.035 276.943 351.699 277.005 351.36 277Z" fill="#C4D3EC"/>
<path d="M353.92 268.88H351.92V265.3C351.954 264.461 351.817 263.623 351.519 262.837C351.221 262.051 350.767 261.334 350.185 260.727C349.602 260.121 348.904 259.639 348.131 259.31C347.357 258.98 346.525 258.811 345.685 258.811C344.845 258.811 344.013 258.98 343.239 259.31C342.466 259.639 341.768 260.121 341.185 260.727C340.603 261.334 340.149 262.051 339.851 262.837C339.553 263.623 339.416 264.461 339.45 265.3V268.88H337.5V265.3C337.5 263.128 338.363 261.045 339.899 259.509C341.435 257.973 343.518 257.11 345.69 257.11C347.862 257.11 349.945 257.973 351.481 259.509C353.017 261.045 353.88 263.128 353.88 265.3L353.92 268.88Z" fill="#C4D3EC"/>
<path d="M353.55 295.45H337.87V297.4H353.52L353.55 295.45Z" fill="#C4D3EC"/>
<path d="M351.02 299.97H340.44V301.97H351.02V299.97Z" fill="#C4D3EC"/>
<path d="M347.37 304.49H344.09V306.49H347.37V304.49Z" fill="#C4D3EC"/>
<path d="M353.55 329.76H337.87V331.76H353.52L353.55 329.76Z" fill="#C4D3EC"/>
<path d="M351.02 334.29H340.44V336.24H351.02V334.29Z" fill="#C4D3EC"/>
<path d="M347.37 338.82H344.09V340.77H347.37V338.82Z" fill="#C4D3EC"/>
<path d="M337.87 374.48L336.49 373.1L342.36 367.23L346.36 371.23L351.12 366.46L352.51 367.84L346.36 373.99L342.36 369.99L337.87 374.48Z" fill="#C4D3EC"/>
<path d="M354.24 369.44V364.79C354.24 364.718 354.212 364.649 354.161 364.599C354.11 364.548 354.042 364.52 353.97 364.52H349.32C349.267 364.52 349.215 364.536 349.171 364.566C349.127 364.595 349.093 364.637 349.072 364.686C349.052 364.736 349.047 364.79 349.057 364.842C349.067 364.894 349.093 364.942 349.13 364.98L353.78 369.63C353.818 369.667 353.866 369.692 353.918 369.703C353.97 369.713 354.024 369.708 354.073 369.687C354.122 369.667 354.164 369.633 354.194 369.589C354.224 369.544 354.24 369.493 354.24 369.44Z" fill="#C4D3EC"/>
<path d="M352.73 192.63H338.73C338.078 192.63 337.452 192.371 336.991 191.91C336.529 191.449 336.27 190.823 336.27 190.17V180.68C336.273 180.03 336.533 179.407 336.994 178.947C337.455 178.488 338.079 178.23 338.73 178.23H352.73C353.381 178.23 354.005 178.488 354.466 178.947C354.927 179.407 355.187 180.03 355.19 180.68V190.17C355.19 190.823 354.931 191.449 354.47 191.91C354.008 192.371 353.382 192.63 352.73 192.63ZM338.73 180.18C338.597 180.18 338.47 180.233 338.376 180.327C338.283 180.421 338.23 180.548 338.23 180.68V190.16C338.229 190.227 338.241 190.293 338.265 190.355C338.29 190.417 338.326 190.473 338.373 190.52C338.419 190.568 338.475 190.606 338.536 190.631C338.598 190.657 338.664 190.67 338.73 190.67H352.73C352.797 190.67 352.862 190.657 352.924 190.631C352.985 190.606 353.041 190.568 353.087 190.52C353.134 190.473 353.17 190.417 353.195 190.355C353.219 190.293 353.231 190.227 353.23 190.16V180.68C353.23 180.548 353.177 180.421 353.084 180.327C352.99 180.233 352.863 180.18 352.73 180.18H338.73Z" fill="#C4D3EC"/>
<path d="M345.72 186.64L336.67 179.99L337.82 178.42L345.72 184.21L353.64 178.41L354.79 179.99L345.72 186.64Z" fill="#C4D3EC"/>
<path d="M399.26 201.33H389.04C388.565 201.33 388.11 201.519 387.774 201.854C387.439 202.19 387.25 202.645 387.25 203.12V213.34C387.25 213.815 387.439 214.27 387.774 214.606C388.11 214.941 388.565 215.13 389.04 215.13H399.26C399.735 215.13 400.19 214.941 400.526 214.606C400.861 214.27 401.05 213.815 401.05 213.34V203.12C401.05 202.885 401.004 202.652 400.914 202.435C400.824 202.218 400.692 202.021 400.526 201.854C400.36 201.688 400.162 201.556 399.945 201.466C399.728 201.376 399.495 201.33 399.26 201.33Z" fill="#ECEFF8"/>
<path d="M526.23 211.88H432.77C432.221 211.907 431.671 211.822 431.156 211.631C430.64 211.439 430.168 211.145 429.77 210.766C429.371 210.387 429.054 209.93 428.837 209.425C428.62 208.919 428.509 208.375 428.509 207.825C428.509 207.275 428.62 206.73 428.837 206.225C429.054 205.719 429.371 205.263 429.77 204.883C430.168 204.504 430.64 204.21 431.156 204.018C431.671 203.827 432.221 203.742 432.77 203.77H526.23C527.271 203.821 528.252 204.271 528.97 205.026C529.688 205.781 530.089 206.783 530.089 207.825C530.089 208.867 529.688 209.869 528.97 210.623C528.252 211.378 527.271 211.828 526.23 211.88Z" fill="#ECEFF8"/>
<path d="M399.26 276.4H389.04C388.805 276.4 388.572 276.447 388.355 276.537C388.138 276.627 387.94 276.758 387.774 276.925C387.608 277.091 387.476 277.288 387.386 277.505C387.296 277.723 387.25 277.955 387.25 278.19V288.4C387.25 288.635 387.296 288.868 387.386 289.085C387.476 289.303 387.608 289.5 387.774 289.666C387.94 289.832 388.138 289.964 388.355 290.054C388.572 290.144 388.805 290.19 389.04 290.19H399.26C399.495 290.19 399.728 290.144 399.945 290.054C400.162 289.964 400.36 289.832 400.526 289.666C400.692 289.5 400.824 289.303 400.914 289.085C401.004 288.868 401.05 288.635 401.05 288.4V278.19C401.05 277.955 401.004 277.723 400.914 277.505C400.824 277.288 400.692 277.091 400.526 276.925C400.36 276.758 400.162 276.627 399.945 276.537C399.728 276.447 399.495 276.4 399.26 276.4Z" fill="#ECEFF8"/>
<path d="M526.23 286.88H432.77C432.221 286.907 431.671 286.822 431.156 286.631C430.64 286.439 430.168 286.145 429.77 285.766C429.371 285.387 429.054 284.93 428.837 284.425C428.62 283.919 428.509 283.375 428.509 282.825C428.509 282.275 428.62 281.73 428.837 281.225C429.054 280.719 429.371 280.263 429.77 279.883C430.168 279.504 430.64 279.21 431.156 279.018C431.671 278.827 432.221 278.742 432.77 278.77H526.23C527.271 278.821 528.252 279.271 528.97 280.026C529.688 280.781 530.089 281.783 530.089 282.825C530.089 283.867 529.688 284.869 528.97 285.623C528.252 286.378 527.271 286.828 526.23 286.88Z" fill="#ECEFF8"/>
<path d="M399.26 316.22H389.04C388.565 316.22 388.11 316.408 387.774 316.744C387.439 317.08 387.25 317.535 387.25 318.01V328.23C387.25 328.704 387.439 329.16 387.774 329.495C388.11 329.831 388.565 330.02 389.04 330.02H399.26C399.735 330.02 400.19 329.831 400.526 329.495C400.861 329.16 401.05 328.704 401.05 328.23V318.01C401.05 317.775 401.004 317.542 400.914 317.325C400.824 317.108 400.692 316.91 400.526 316.744C400.36 316.578 400.162 316.446 399.945 316.356C399.728 316.266 399.495 316.22 399.26 316.22Z" fill="#ECEFF8"/>
<path d="M526.23 326.74H432.77C432.221 326.767 431.671 326.683 431.156 326.491C430.64 326.3 430.168 326.005 429.77 325.626C429.371 325.247 429.054 324.791 428.837 324.285C428.62 323.78 428.509 323.235 428.509 322.685C428.509 322.135 428.62 321.59 428.837 321.085C429.054 320.579 429.371 320.123 429.77 319.744C430.168 319.365 430.64 319.07 431.156 318.879C431.671 318.687 432.221 318.603 432.77 318.63H526.23C527.271 318.682 528.252 319.131 528.97 319.886C529.688 320.641 530.089 321.643 530.089 322.685C530.089 323.727 529.688 324.729 528.97 325.484C528.252 326.239 527.271 326.688 526.23 326.74Z" fill="#ECEFF8"/>
<path d="M399.26 356.05H389.04C388.565 356.05 388.11 356.238 387.774 356.574C387.439 356.91 387.25 357.365 387.25 357.84V368.06C387.25 368.535 387.439 368.99 387.774 369.326C388.11 369.661 388.565 369.85 389.04 369.85H399.26C399.735 369.85 400.19 369.661 400.526 369.326C400.861 368.99 401.05 368.535 401.05 368.06V357.88C401.055 357.641 401.013 357.404 400.925 357.182C400.838 356.961 400.707 356.759 400.54 356.588C400.373 356.418 400.174 356.282 399.954 356.19C399.735 356.097 399.498 356.05 399.26 356.05Z" fill="#ECEFF8"/>
<path d="M526.23 366.57H432.77C432.221 366.597 431.671 366.513 431.156 366.321C430.64 366.13 430.168 365.836 429.77 365.456C429.371 365.077 429.054 364.621 428.837 364.115C428.62 363.61 428.509 363.065 428.509 362.515C428.509 361.965 428.62 361.421 428.837 360.915C429.054 360.409 429.371 359.953 429.77 359.574C430.168 359.195 430.64 358.9 431.156 358.709C431.671 358.517 432.221 358.433 432.77 358.46H526.23C527.271 358.512 528.252 358.962 528.97 359.716C529.688 360.471 530.089 361.473 530.089 362.515C530.089 363.557 529.688 364.559 528.97 365.314C528.252 366.069 527.271 366.518 526.23 366.57Z" fill="#ECEFF8"/>
<path d="M399.26 395.88H389.04C388.565 395.88 388.11 396.068 387.774 396.404C387.439 396.74 387.25 397.195 387.25 397.67V407.88C387.25 408.355 387.439 408.81 387.774 409.146C388.11 409.481 388.565 409.67 389.04 409.67H399.26C399.735 409.67 400.19 409.481 400.526 409.146C400.861 408.81 401.05 408.355 401.05 407.88V397.67C401.05 397.435 401.004 397.202 400.914 396.985C400.824 396.768 400.692 396.57 400.526 396.404C400.36 396.238 400.162 396.106 399.945 396.016C399.728 395.926 399.495 395.88 399.26 395.88Z" fill="#ECEFF8"/>
<path d="M526.23 406.4H432.77C432.221 406.427 431.671 406.343 431.156 406.151C430.64 405.96 430.168 405.666 429.77 405.286C429.371 404.907 429.054 404.451 428.837 403.945C428.62 403.44 428.509 402.895 428.509 402.345C428.509 401.795 428.62 401.251 428.837 400.745C429.054 400.239 429.371 399.783 429.77 399.404C430.168 399.025 430.64 398.73 431.156 398.539C431.671 398.348 432.221 398.263 432.77 398.29H526.23C527.271 398.342 528.252 398.792 528.97 399.546C529.688 400.301 530.089 401.303 530.089 402.345C530.089 403.387 529.688 404.389 528.97 405.144C528.252 405.899 527.271 406.348 526.23 406.4Z" fill="#ECEFF8"/>
<path d="M720.94 174.61V185.33H719.64V175.97H719.58L716.97 177.71V176.39L719.64 174.61H720.94ZM728.65 179.39V180.55H723.96V179.39H728.65ZM734.15 185.47C733.576 185.48 733.008 185.357 732.49 185.11C732.018 184.883 731.611 184.539 731.31 184.11C731.011 183.684 730.841 183.18 730.82 182.66H732.07C732.092 182.894 732.162 183.122 732.275 183.328C732.389 183.535 732.544 183.716 732.73 183.86C732.989 184.064 733.289 184.209 733.61 184.285C733.93 184.362 734.264 184.368 734.587 184.303C734.91 184.239 735.215 184.105 735.482 183.911C735.748 183.717 735.969 183.468 736.13 183.18C736.331 182.797 736.435 182.372 736.435 181.94C736.435 181.508 736.331 181.082 736.13 180.7C735.934 180.336 735.644 180.032 735.29 179.82C734.92 179.603 734.498 179.493 734.07 179.5C733.731 179.504 733.395 179.554 733.07 179.65C732.767 179.731 732.479 179.863 732.22 180.04L731.01 179.9L731.66 174.62H737.22V175.78H732.74L732.37 178.93H732.43C732.682 178.743 732.962 178.598 733.26 178.5C734.005 178.249 734.814 178.269 735.546 178.556C736.278 178.843 736.885 179.379 737.26 180.07C737.559 180.644 737.71 181.283 737.7 181.93C737.712 182.57 737.553 183.201 737.24 183.76C736.944 184.284 736.512 184.719 735.99 185.02C735.428 185.333 734.793 185.488 734.15 185.47ZM743.26 185.47C742.54 185.487 741.836 185.261 741.26 184.83C740.664 184.339 740.223 183.686 739.99 182.95C739.403 181.01 739.403 178.94 739.99 177C740.226 176.262 740.67 175.609 741.27 175.12C741.852 174.7 742.552 174.474 743.27 174.474C743.988 174.474 744.688 174.7 745.27 175.12C745.87 175.609 746.314 176.262 746.55 177C747.137 178.94 747.137 181.01 746.55 182.95C746.323 183.705 745.878 184.377 745.27 184.88C744.686 185.298 743.977 185.506 743.26 185.47ZM743.26 184.32C743.639 184.323 744.012 184.219 744.334 184.019C744.656 183.819 744.915 183.531 745.08 183.19C745.563 182.188 745.783 181.08 745.72 179.97C745.735 179.17 745.637 178.372 745.43 177.6C745.283 177.037 744.99 176.523 744.58 176.11C744.223 175.774 743.75 175.591 743.26 175.6C742.88 175.597 742.506 175.703 742.184 175.905C741.862 176.107 741.604 176.396 741.44 176.74C740.95 177.743 740.727 178.855 740.79 179.97C740.77 180.77 740.868 181.568 741.08 182.34C741.222 182.9 741.512 183.411 741.92 183.82C742.29 184.146 742.767 184.324 743.26 184.32ZM756.4 185.49C755.73 185.51 755.069 185.331 754.501 184.975C753.933 184.619 753.483 184.102 753.21 183.49C752.907 182.801 752.75 182.057 752.75 181.305C752.75 180.552 752.907 179.808 753.21 179.12C753.491 178.525 753.935 178.022 754.49 177.67C755.067 177.329 755.725 177.15 756.395 177.15C757.065 177.15 757.723 177.329 758.3 177.67C758.855 178.022 759.299 178.525 759.58 179.12C759.883 179.808 760.04 180.552 760.04 181.305C760.04 182.057 759.883 182.801 759.58 183.49C759.296 184.083 758.853 184.585 758.3 184.94C757.732 185.301 757.073 185.492 756.4 185.49ZM756.4 184.39C756.89 184.41 757.371 184.258 757.76 183.96C758.121 183.67 758.394 183.286 758.55 182.85C758.883 181.878 758.883 180.822 758.55 179.85C758.394 179.411 758.121 179.024 757.76 178.73C757.361 178.451 756.887 178.301 756.4 178.301C755.913 178.301 755.439 178.451 755.04 178.73C754.676 179.021 754.402 179.409 754.25 179.85C753.904 180.82 753.904 181.88 754.25 182.85C754.403 183.287 754.677 183.672 755.04 183.96C755.428 184.26 755.91 184.412 756.4 184.39ZM765.5 177.29V178.34H761.17V177.29H765.5ZM762.5 185.29V176.18C762.482 175.772 762.594 175.37 762.82 175.03C763.037 174.732 763.326 174.495 763.66 174.34C764.007 174.188 764.381 174.11 764.76 174.11C765.009 174.106 765.258 174.133 765.5 174.19C765.647 174.22 765.791 174.264 765.93 174.32L765.57 175.39L765.31 175.31C765.17 175.274 765.025 175.257 764.88 175.26C764.72 175.244 764.558 175.263 764.406 175.317C764.253 175.37 764.115 175.457 764 175.57C763.803 175.83 763.707 176.154 763.73 176.48V185.33L762.5 185.29ZM775.15 174.57V185.29H773.87V175.93H773.81L771.19 177.67V176.35L773.87 174.57H775.15ZM778.23 185.29V184.35L781.77 180.47C782.18 180.02 782.52 179.63 782.77 179.29C783.01 179.001 783.212 178.681 783.37 178.34C783.501 178.044 783.569 177.724 783.57 177.4C783.576 177.062 783.485 176.73 783.308 176.443C783.131 176.156 782.874 175.925 782.57 175.78C782.257 175.634 781.915 175.559 781.57 175.56C781.195 175.55 780.823 175.636 780.49 175.81C780.193 175.977 779.947 176.223 779.78 176.52C779.613 176.851 779.531 177.219 779.54 177.59H778.3C778.29 177.006 778.442 176.431 778.74 175.93C779.019 175.487 779.408 175.125 779.87 174.88C780.391 174.606 780.972 174.469 781.56 174.48C782.142 174.467 782.717 174.605 783.23 174.88C783.698 175.129 784.091 175.499 784.37 175.95C784.643 176.402 784.784 176.922 784.78 177.45C784.779 177.846 784.708 178.239 784.57 178.61C784.4 179.065 784.164 179.493 783.87 179.88C783.422 180.467 782.941 181.027 782.43 181.56L780.03 184.13V184.22H785.03V185.37L778.23 185.29ZM790.5 185.43C789.926 185.44 789.358 185.317 788.84 185.07C788.367 184.843 787.961 184.499 787.66 184.07C787.361 183.644 787.191 183.14 787.17 182.62H788.43C788.448 182.855 788.516 183.084 788.63 183.292C788.744 183.499 788.9 183.679 789.09 183.82C789.489 184.14 789.989 184.307 790.5 184.29C790.907 184.301 791.309 184.199 791.662 183.996C792.015 183.794 792.305 183.497 792.5 183.14C792.702 182.762 792.805 182.339 792.8 181.91C792.81 181.473 792.703 181.041 792.49 180.66C792.294 180.296 792.004 179.992 791.65 179.78C791.28 179.563 790.858 179.453 790.43 179.46C790.091 179.464 789.755 179.514 789.43 179.61C789.127 179.691 788.839 179.823 788.58 180L787.37 179.86L788.02 174.58H793.58V175.74H789.1L788.67 178.88H788.73C788.983 178.695 789.263 178.55 789.56 178.45C789.882 178.341 790.22 178.283 790.56 178.28C791.172 178.263 791.777 178.417 792.307 178.724C792.837 179.031 793.271 179.48 793.56 180.02C793.863 180.592 794.015 181.232 794 181.88C794.012 182.52 793.853 183.151 793.54 183.71C793.244 184.234 792.812 184.669 792.29 184.97C791.74 185.298 791.111 185.471 790.47 185.47L790.5 185.43Z" fill="#C4D3EC"/>
<path d="M849.93 175.14C850.303 175.142 850.668 175.033 850.978 174.827C851.289 174.621 851.531 174.328 851.675 173.984C851.819 173.64 851.857 173.261 851.784 172.896C851.712 172.53 851.533 172.194 851.269 171.931C851.006 171.667 850.67 171.488 850.304 171.416C849.939 171.343 849.56 171.381 849.216 171.525C848.872 171.668 848.579 171.911 848.373 172.222C848.167 172.532 848.058 172.897 848.06 173.27C848.063 173.765 848.261 174.239 848.611 174.589C848.961 174.939 849.435 175.137 849.93 175.14Z" fill="#C4D3EC"/>
<path d="M849.93 180.64C850.303 180.642 850.668 180.533 850.978 180.327C851.289 180.121 851.531 179.828 851.675 179.484C851.819 179.14 851.857 178.761 851.784 178.396C851.712 178.03 851.533 177.694 851.269 177.431C851.006 177.167 850.67 176.988 850.304 176.916C849.939 176.843 849.56 176.881 849.216 177.025C848.872 177.168 848.579 177.411 848.373 177.722C848.167 178.032 848.058 178.397 848.06 178.77C848.063 179.265 848.261 179.739 848.611 180.089C848.961 180.439 849.435 180.637 849.93 180.64Z" fill="#C4D3EC"/>
<path d="M849.93 186.15C850.302 186.152 850.667 186.043 850.977 185.838C851.288 185.632 851.53 185.339 851.674 184.996C851.818 184.653 851.857 184.274 851.785 183.909C851.714 183.544 851.535 183.208 851.273 182.944C851.01 182.68 850.676 182.5 850.311 182.427C849.946 182.353 849.567 182.39 849.223 182.532C848.879 182.674 848.585 182.915 848.378 183.224C848.171 183.533 848.06 183.897 848.06 184.27C848.06 184.766 848.257 185.243 848.607 185.595C848.958 185.948 849.433 186.147 849.93 186.15Z" fill="#C4D3EC"/>
<path d="M848.53 203.74H548.69C547.017 203.74 545.66 205.097 545.66 206.77V208.82C545.66 210.494 547.017 211.85 548.69 211.85H848.53C850.203 211.85 851.56 210.494 851.56 208.82V206.77C851.56 205.097 850.203 203.74 848.53 203.74Z" fill="#ECEFF8"/>
<path d="M848.78 278.82H548.94C547.267 278.82 545.91 280.177 545.91 281.85V283.9C545.91 285.574 547.267 286.93 548.94 286.93H848.78C850.453 286.93 851.81 285.574 851.81 283.9V281.85C851.81 280.177 850.453 278.82 848.78 278.82Z" fill="#ECEFF8"/>
<path d="M848.78 318.63H548.94C547.267 318.63 545.91 319.986 545.91 321.66V323.71C545.91 325.383 547.267 326.74 548.94 326.74H848.78C850.453 326.74 851.81 325.383 851.81 323.71V321.66C851.81 319.986 850.453 318.63 848.78 318.63Z" fill="#ECEFF8"/>
<path d="M848.78 358.46H548.94C547.267 358.46 545.91 359.817 545.91 361.49V363.54C545.91 365.213 547.267 366.57 548.94 366.57H848.78C850.453 366.57 851.81 365.213 851.81 363.54V361.49C851.81 359.817 850.453 358.46 848.78 358.46Z" fill="#ECEFF8"/>
<path d="M848.78 398.29H548.94C547.267 398.29 545.91 399.647 545.91 401.32V403.37C545.91 405.043 547.267 406.4 548.94 406.4H848.78C850.453 406.4 851.81 405.043 851.81 403.37V401.32C851.81 399.647 850.453 398.29 848.78 398.29Z" fill="#ECEFF8"/>
<path d="M381.75 227.31H888.07V264.61H381.75V227.31Z" fill="#D3DAEE" stroke="white" stroke-width="1.5" stroke-miterlimit="10"/>
<path d="M249.42 190.05C249.42 190.05 253.11 187.84 252.36 173.05C251.82 162.37 253.56 156.18 257.76 155.9C261.96 155.62 261.52 152.7 262.63 142.15C263.74 131.6 268.81 133.01 271.88 136.65C274.95 140.29 281.57 115.77 289.02 118.86C293.46 120.7 290.09 129.2 287.58 135.27C285.07 141.34 294.09 133.65 296.92 141.01C299.75 148.37 282.22 158.91 286.73 162.55C287.989 163.477 288.895 164.805 289.299 166.315C289.702 167.826 289.579 169.429 288.95 170.86C279.23 189.96 249.42 190.03 249.42 190.03V190.05Z" fill="#647BDC"/>
<path d="M249.42 190.07C274.89 175.49 281.42 136.41 281.42 136.41" stroke="white" stroke-linecap="round" stroke-linejoin="round"/>
<path d="M45.24 44.5604C50.95 40.5604 57.72 58.9304 53.67 60.6604C51.63 61.5604 40.04 48.2504 45.24 44.5604Z" fill="#2FBBAF"/>
<path d="M60.18 68.1096C58.11 67.2996 59.24 49.6996 65.53 50.7396C72.42 51.8796 64.27 69.7296 60.18 68.1096Z" fill="#2FBBAF"/>
<path d="M68.34 84.8203C66.34 83.9403 67.97 66.3903 74.23 67.6203C81.08 68.9803 72.39 86.5603 68.34 84.8203Z" fill="#2FBBAF"/>
<path d="M76.53 99.9795C74.61 98.8695 78.26 81.6195 84.33 83.5695C90.99 85.6795 80.35 102.17 76.53 99.9795Z" fill="#2FBBAF"/>
<path d="M55.47 70.6804C56.4 68.6804 43.47 56.6804 39.63 61.7404C35.41 67.3104 53.6 74.6704 55.47 70.6804Z" fill="#2FBBAF"/>
<path d="M61.35 86.1103C61.72 83.9203 46.1 75.7403 43.72 81.6603C41.12 88.1503 60.61 90.4503 61.35 86.1103Z" fill="#2FBBAF"/>
<path d="M71 102.37C71.31 100.17 55.43 92.4904 53.24 98.4704C50.87 105.04 70.39 106.73 71 102.37Z" fill="#2FBBAF"/>
<path d="M93.67 124.64C93.67 124.64 71.35 104.64 54.5 63.5596" stroke="#2FBBAF" stroke-linecap="round" stroke-linejoin="round"/>
<path d="M45.49 120.56C91.67 127.74 98.39 178.36 98.39 178.36C43.43 168.41 45.49 120.56 45.49 120.56Z" fill="#FDBE10"/>
<path d="M92.69 172.75L49.53 125.98" stroke="white" stroke-width="0.75" stroke-linecap="round" stroke-linejoin="round"/>
<path d="M62.53 140.06L59.59 130.86" stroke="white" stroke-width="0.75" stroke-linecap="round" stroke-linejoin="round"/>
<path d="M74.99 153.56L72.45 138.56" stroke="white" stroke-width="0.75" stroke-linecap="round" stroke-linejoin="round"/>
<path d="M84.73 164.11L83.21 151.56" stroke="white" stroke-width="0.75" stroke-linecap="round" stroke-linejoin="round"/>
<path d="M62.34 139.84L53.41 136.17" stroke="white" stroke-width="0.75" stroke-linecap="round" stroke-linejoin="round"/>
<path d="M74.79 153.35L60.02 149.56" stroke="white" stroke-width="0.75" stroke-linecap="round" stroke-linejoin="round"/>
<path d="M84.53 163.9L72.16 161.37" stroke="white" stroke-width="0.75" stroke-linecap="round" stroke-linejoin="round"/>
<path d="M243 55.3604H99.94C97.3462 55.3604 94.8586 56.3907 93.0245 58.2248C91.1904 60.059 90.16 62.5465 90.16 65.1404V208.24C90.1706 210.827 91.2056 213.305 93.0386 215.13C94.8716 216.955 97.3531 217.98 99.94 217.98H243C245.594 217.98 248.081 216.95 249.916 215.116C251.75 213.282 252.78 210.794 252.78 208.2V65.1404C252.78 62.5465 251.75 60.059 249.916 58.2248C248.081 56.3907 245.594 55.3604 243 55.3604Z" fill="white" stroke="#C1D0EB" stroke-width="2" stroke-miterlimit="10"/>
<path d="M127.87 79.6201H107.33C106.92 79.6227 106.527 79.7869 106.237 80.077C105.947 80.3671 105.783 80.7598 105.78 81.1701V101.71C105.78 102.121 105.943 102.515 106.234 102.806C106.525 103.097 106.919 103.26 107.33 103.26H127.87C128.074 103.261 128.276 103.222 128.465 103.145C128.653 103.067 128.825 102.953 128.969 102.809C129.113 102.665 129.227 102.494 129.305 102.305C129.382 102.116 129.421 101.914 129.42 101.71V81.1701C129.42 80.9666 129.38 80.765 129.302 80.577C129.224 80.3889 129.11 80.218 128.966 80.0741C128.822 79.9302 128.651 79.816 128.463 79.7381C128.275 79.6602 128.074 79.6201 127.87 79.6201Z" fill="white" stroke="#C1D0EB" stroke-width="2" stroke-miterlimit="10"/>
<path d="M127.87 124.98H107.33C106.919 124.98 106.525 125.143 106.234 125.434C105.943 125.724 105.78 126.118 105.78 126.53V146.98C105.78 147.392 105.943 147.787 106.233 148.079C106.524 148.371 106.918 148.537 107.33 148.54H127.87C128.074 148.54 128.277 148.499 128.465 148.421C128.654 148.342 128.826 148.227 128.97 148.082C129.114 147.937 129.228 147.765 129.305 147.576C129.382 147.387 129.421 147.184 129.42 146.98V126.49C129.412 126.085 129.245 125.699 128.955 125.416C128.665 125.134 128.275 124.977 127.87 124.98Z" fill="white" stroke="#C1D0EB" stroke-width="2" stroke-miterlimit="10"/>
<path d="M127.87 170.24H107.33C106.918 170.243 106.524 170.408 106.233 170.701C105.943 170.993 105.78 171.388 105.78 171.8V192.33C105.78 192.741 105.943 193.136 106.234 193.426C106.525 193.717 106.919 193.88 107.33 193.88H127.87C128.074 193.882 128.276 193.842 128.465 193.765C128.653 193.688 128.825 193.573 128.969 193.429C129.113 193.285 129.227 193.114 129.305 192.925C129.382 192.736 129.421 192.534 129.42 192.33V171.8C129.421 171.596 129.382 171.393 129.305 171.204C129.228 171.015 129.114 170.843 128.97 170.698C128.826 170.553 128.654 170.438 128.465 170.359C128.277 170.281 128.074 170.24 127.87 170.24Z" fill="white" stroke="#C1D0EB" stroke-width="2" stroke-miterlimit="10"/>
<path d="M116.09 99.8805C115.826 99.8883 115.564 99.8406 115.32 99.7405C115.076 99.6382 114.855 99.4886 114.67 99.3004L109.19 93.8204C108.818 93.4455 108.61 92.9386 108.61 92.4105C108.61 91.88 108.821 91.3713 109.196 90.9962C109.571 90.6212 110.08 90.4105 110.61 90.4105C111.138 90.41 111.645 90.6185 112.02 90.9905L116.09 95.0605L131.24 79.9004C131.429 79.7189 131.649 79.5732 131.89 79.4704C132.38 79.2677 132.93 79.2677 133.42 79.4704C133.663 79.5698 133.884 79.7159 134.07 79.9004C134.254 80.089 134.403 80.3092 134.51 80.5505C134.71 81.0443 134.71 81.5966 134.51 82.0905C134.407 82.3305 134.257 82.5479 134.07 82.7305L117.5 99.3004C117.317 99.4883 117.098 99.6367 116.855 99.7364C116.613 99.8362 116.352 99.8852 116.09 99.8805Z" fill="#ED332E"/>
<path d="M116.09 145.35C115.826 145.349 115.565 145.298 115.32 145.2C115.076 145.097 114.855 144.948 114.67 144.76L109.19 139.28C109.004 139.094 108.858 138.873 108.76 138.63C108.661 138.388 108.61 138.13 108.61 137.87C108.61 137.339 108.821 136.83 109.196 136.455C109.571 136.08 110.08 135.87 110.61 135.87C111.138 135.869 111.645 136.078 112.02 136.45L116.09 140.52L131.24 125.37C131.523 125.11 131.875 124.938 132.254 124.873C132.633 124.809 133.022 124.854 133.376 125.005C133.729 125.156 134.031 125.406 134.247 125.724C134.462 126.042 134.581 126.415 134.59 126.8C134.601 127.312 134.415 127.81 134.07 128.19L117.5 144.76C117.127 145.135 116.62 145.347 116.09 145.35Z" fill="#ED332E"/>
<path d="M226.54 86.1602H146.28C144.88 86.1628 143.539 86.7199 142.549 87.7095C141.56 88.6992 141.003 90.0406 141 91.4402C141 92.8405 141.556 94.1835 142.546 95.1737C143.537 96.1639 144.88 96.7202 146.28 96.7202H226.54C227.234 96.7215 227.921 96.5858 228.562 96.3209C229.203 96.056 229.786 95.6672 230.276 95.1766C230.767 94.6861 231.156 94.1035 231.421 93.4623C231.686 92.8211 231.821 92.1339 231.82 91.4402C231.82 90.0398 231.264 88.6968 230.274 87.7066C229.283 86.7164 227.94 86.1602 226.54 86.1602Z" fill="#C1D0EB"/>
<path d="M226.54 131.48H146.28C144.88 131.48 143.537 132.037 142.546 133.027C141.556 134.017 141 135.36 141 136.76C141.003 138.16 141.56 139.501 142.549 140.491C143.539 141.481 144.88 142.038 146.28 142.04H226.54C227.94 142.04 229.283 141.484 230.274 140.494C231.264 139.504 231.82 138.161 231.82 136.76C231.821 136.067 231.686 135.38 231.421 134.738C231.156 134.097 230.767 133.515 230.276 133.024C229.786 132.533 229.203 132.145 228.562 131.88C227.921 131.615 227.234 131.479 226.54 131.48Z" fill="#C1D0EB"/>
<path d="M226.54 176.79H146.28C144.88 176.79 143.537 177.346 142.546 178.337C141.556 179.327 141 180.67 141 182.07C141.003 183.47 141.56 184.811 142.549 185.801C143.539 186.79 144.88 187.347 146.28 187.35H226.54C227.94 187.35 229.283 186.794 230.274 185.804C231.264 184.813 231.82 183.47 231.82 182.07C231.821 181.376 231.686 180.689 231.421 180.048C231.156 179.407 230.767 178.824 230.276 178.334C229.786 177.843 229.203 177.454 228.562 177.189C227.921 176.924 227.234 176.789 226.54 176.79Z" fill="#C1D0EB"/>
<path d="M236.31 267.91H73.6C72.313 267.91 71.0387 268.164 69.8497 268.656C68.6607 269.149 67.5804 269.871 66.6703 270.781C65.7603 271.691 65.0385 272.771 64.546 273.96C64.0535 275.149 63.8 276.423 63.8 277.71V413.29C63.8 414.577 64.0535 415.851 64.5462 417.039C65.0388 418.227 65.7608 419.307 66.6709 420.216C67.5811 421.125 68.6615 421.846 69.8504 422.338C71.0394 422.829 72.3135 423.081 73.6 423.08H236.31C237.596 423.081 238.871 422.829 240.06 422.338C241.248 421.846 242.329 421.125 243.239 420.216C244.149 419.307 244.871 418.227 245.364 417.039C245.856 415.851 246.11 414.577 246.11 413.29V277.71C246.11 276.423 245.857 275.149 245.364 273.96C244.872 272.771 244.15 271.691 243.24 270.781C242.33 269.871 241.249 269.149 240.06 268.656C238.871 268.164 237.597 267.91 236.31 267.91Z" fill="#647BDC" stroke="white" stroke-width="2" stroke-miterlimit="10"/>
<path d="M218.47 254.62H93.08C92.2684 254.62 91.4901 254.943 90.9162 255.516C90.3424 256.09 90.02 256.869 90.02 257.68V385.58C90.02 386.392 90.3424 387.17 90.9162 387.744C91.4901 388.318 92.2684 388.64 93.08 388.64H218.47C219.282 388.64 220.06 388.318 220.634 387.744C221.208 387.17 221.53 386.392 221.53 385.58V257.68C221.53 256.869 221.208 256.09 220.634 255.516C220.06 254.943 219.282 254.62 218.47 254.62Z" fill="white" stroke="#C1D0EB" stroke-width="2" stroke-miterlimit="10"/>
<path d="M235.47 241.52H110.08C109.678 241.518 109.279 241.596 108.907 241.75C108.536 241.903 108.198 242.128 107.913 242.413C107.629 242.697 107.404 243.035 107.25 243.407C107.097 243.779 107.019 244.177 107.02 244.58V385.58C107.02 386.391 107.342 387.169 107.916 387.743C108.49 388.317 109.268 388.64 110.08 388.64H235.47C236.282 388.64 237.06 388.317 237.634 387.743C238.208 387.169 238.53 386.391 238.53 385.58V244.58C238.531 244.177 238.453 243.779 238.3 243.407C238.146 243.035 237.921 242.697 237.637 242.413C237.352 242.128 237.014 241.903 236.643 241.75C236.271 241.596 235.872 241.518 235.47 241.52Z" fill="white" stroke="#C1D0EB" stroke-width="2" stroke-miterlimit="10"/>
<path d="M216.94 281.41H129C128.664 281.389 128.328 281.436 128.012 281.55C127.695 281.664 127.405 281.841 127.16 282.071C126.915 282.301 126.719 282.579 126.586 282.888C126.452 283.196 126.383 283.529 126.383 283.865C126.383 284.202 126.452 284.534 126.586 284.843C126.719 285.151 126.915 285.429 127.16 285.659C127.405 285.889 127.695 286.067 128.012 286.18C128.328 286.294 128.664 286.342 129 286.32H216.94C217.276 286.342 217.612 286.294 217.928 286.18C218.245 286.067 218.535 285.889 218.78 285.659C219.025 285.429 219.221 285.151 219.354 284.843C219.488 284.534 219.557 284.202 219.557 283.865C219.557 283.529 219.488 283.196 219.354 282.888C219.221 282.579 219.025 282.301 218.78 282.071C218.535 281.841 218.245 281.664 217.928 281.55C217.612 281.436 217.276 281.389 216.94 281.41Z" fill="#C1D0EB"/>
<path d="M216.94 302.23H129C128.664 302.208 128.328 302.256 128.012 302.369C127.695 302.483 127.405 302.66 127.16 302.891C126.915 303.121 126.719 303.399 126.586 303.707C126.452 304.016 126.383 304.348 126.383 304.685C126.383 305.021 126.452 305.354 126.586 305.662C126.719 305.971 126.915 306.249 127.16 306.479C127.405 306.709 127.695 306.886 128.012 307C128.328 307.113 128.664 307.161 129 307.14H216.94C217.276 307.161 217.612 307.113 217.928 307C218.245 306.886 218.535 306.709 218.78 306.479C219.025 306.249 219.221 305.971 219.354 305.662C219.488 305.354 219.557 305.021 219.557 304.685C219.557 304.348 219.488 304.016 219.354 303.707C219.221 303.399 219.025 303.121 218.78 302.891C218.535 302.66 218.245 302.483 217.928 302.369C217.612 302.256 217.276 302.208 216.94 302.23Z" fill="#C1D0EB"/>
<path d="M210.46 267.91H135.46C135.124 267.889 134.788 267.936 134.472 268.05C134.155 268.164 133.865 268.341 133.62 268.571C133.375 268.801 133.179 269.079 133.046 269.388C132.912 269.696 132.843 270.029 132.843 270.365C132.843 270.702 132.912 271.034 133.046 271.343C133.179 271.651 133.375 271.929 133.62 272.159C133.865 272.389 134.155 272.567 134.472 272.68C134.788 272.794 135.124 272.842 135.46 272.82H210.46C210.796 272.842 211.132 272.794 211.448 272.68C211.765 272.567 212.055 272.389 212.3 272.159C212.545 271.929 212.741 271.651 212.874 271.343C213.008 271.034 213.077 270.702 213.077 270.365C213.077 270.029 213.008 269.696 212.874 269.388C212.741 269.079 212.545 268.801 212.3 268.571C212.055 268.341 211.765 268.164 211.448 268.05C211.132 267.936 210.796 267.889 210.46 267.91Z" fill="#C1D0EB"/>
<path d="M71.63 278.29H42.68C42.4652 278.29 42.2591 278.375 42.1072 278.527C41.9553 278.679 41.87 278.885 41.87 279.1V288.05C41.87 288.265 41.9553 288.471 42.1072 288.623C42.2591 288.775 42.4652 288.86 42.68 288.86H71.63C71.8448 288.86 72.0508 288.775 72.2028 288.623C72.3547 288.471 72.44 288.265 72.44 288.05V279.1C72.44 278.885 72.3547 278.679 72.2028 278.527C72.0508 278.375 71.8448 278.29 71.63 278.29Z" fill="#ED332E" stroke="white" stroke-linecap="round" stroke-linejoin="round"/>
<path d="M71.63 294.11H42.68C42.4652 294.11 42.2591 294.196 42.1072 294.348C41.9553 294.499 41.87 294.706 41.87 294.92V303.86C41.87 304.075 41.9553 304.281 42.1072 304.433C42.2591 304.585 42.4652 304.67 42.68 304.67H71.63C71.8448 304.67 72.0508 304.585 72.2028 304.433C72.3547 304.281 72.44 304.075 72.44 303.86V294.92C72.44 294.706 72.3547 294.499 72.2028 294.348C72.0508 294.196 71.8448 294.11 71.63 294.11Z" fill="#FDBE10" stroke="white" stroke-linecap="round" stroke-linejoin="round"/>
<path d="M230.94 313.19C230.585 313.198 230.231 313.231 229.88 313.29C230.212 313.25 230.546 313.23 230.88 313.23H230.95V313.18L230.94 313.19Z" stroke="white" stroke-width="2" stroke-miterlimit="10"/>
<path d="M233.87 380.57V380.56L233.85 380.49L234.42 380.86L233.87 380.57Z" stroke="white" stroke-width="2" stroke-miterlimit="10"/>
<path d="M223.01 326.71L222.13 327.08V327.02L223.03 326.64L223.01 326.71Z" stroke="white" stroke-width="2" stroke-miterlimit="10"/>
<path d="M233.87 380.57V380.56L233.85 380.49L234.42 380.86L233.87 380.57Z" stroke="white" stroke-width="2" stroke-miterlimit="10"/>
<path d="M231 313.19V313.24" stroke="white" stroke-width="2" stroke-miterlimit="10"/>
<path d="M223 326.64V326.71L222.12 327.08V327.02L223 326.64Z" stroke="white" stroke-width="2" stroke-miterlimit="10"/>
<path d="M231 313.19V313.24H230.94C230.606 313.241 230.272 313.261 229.94 313.3C230.291 313.242 230.645 313.208 231 313.2V313.19Z" stroke="white" stroke-width="2" stroke-miterlimit="10"/>
<path d="M286.61 299.16C286.465 298.432 286.178 297.74 285.764 297.124C285.35 296.507 284.819 295.979 284.2 295.57L235.4 263.22C234.27 262.449 232.894 262.128 231.54 262.32C230.731 262.409 229.951 262.679 229.26 263.11C228.564 263.536 227.97 264.109 227.52 264.79L227.28 265.15L175.77 342.81C175.513 343.191 175.308 343.605 175.16 344.04C175.105 344.153 175.068 344.275 175.05 344.4C175.05 344.55 174.97 344.71 174.94 344.88V345.12C174.94 345.27 174.94 345.43 174.94 345.58C174.9 346.068 174.93 346.56 175.03 347.04C175.251 348.158 175.805 349.183 176.62 349.98C176.872 350.227 177.147 350.451 177.44 350.65L226.19 382.98C226.481 383.176 226.793 383.34 227.12 383.47C228.334 383.985 229.69 384.06 230.953 383.682C232.217 383.304 233.308 382.497 234.04 381.4L234.42 380.82L233.87 380.53V380.46L234.44 380.83L285.57 303.76L285.5 303.82L238.3 313.37C238.278 313.341 238.251 313.317 238.22 313.3C238.04 313.15 237.87 313.01 237.69 312.88L238.22 313.29L285.52 303.71H285.57L285.8 303.36C286.608 302.119 286.899 300.612 286.61 299.16ZM223.02 326.72L222.14 327.09V327.03L223.04 326.65V326.72H223.02ZM231.02 313.24H230.94C230.606 313.24 230.272 313.26 229.94 313.3C230.29 313.241 230.645 313.208 231 313.2L231.02 313.24Z" stroke="white" stroke-width="2" stroke-miterlimit="10"/>
<path d="M225.35 338.08L234.03 379.08" stroke="white" stroke-width="2" stroke-miterlimit="10"/>
<path d="M242.26 312.51L283.71 304.16" stroke="white" stroke-width="2" stroke-miterlimit="10"/>
<path d="M238.2 313.33C237.852 313.04 237.488 312.77 237.11 312.52C235.846 311.669 234.419 311.09 232.92 310.82C232.297 310.7 231.664 310.639 231.03 310.64C230.202 310.633 229.376 310.727 228.57 310.92C227.096 311.273 225.709 311.919 224.49 312.82C223.131 313.822 221.966 315.062 221.05 316.48C220.075 317.921 219.371 319.527 218.97 321.22C218.61 322.742 218.57 324.322 218.85 325.86C218.997 326.637 219.221 327.398 219.52 328.13C220.396 330.292 221.932 332.123 223.91 333.36L224.38 333.66C225.596 334.4 226.928 334.931 228.32 335.23C229.811 335.54 231.349 335.54 232.84 335.23C234.366 334.895 235.806 334.248 237.07 333.33C238.473 332.323 239.673 331.061 240.61 329.61C241.188 328.734 241.678 327.803 242.07 326.83C242.447 325.931 242.703 324.986 242.83 324.02L240.41 323.39C240.272 324.276 240.037 325.145 239.71 325.98C239.408 326.774 239.019 327.532 238.55 328.24C237.827 329.359 236.901 330.332 235.82 331.11C234.834 331.795 233.723 332.281 232.55 332.54C231.389 332.78 230.191 332.78 229.03 332.54C226.889 332.038 224.952 330.893 223.48 329.26C223.233 328.984 223.003 328.693 222.79 328.39C222.501 327.978 222.253 327.54 222.05 327.08C221.758 326.462 221.543 325.81 221.41 325.14C221.18 323.942 221.2 322.71 221.47 321.52C222.098 318.914 223.607 316.604 225.74 314.98C226.696 314.271 227.784 313.761 228.94 313.48C229.593 313.312 230.265 313.228 230.94 313.23C231.403 313.248 231.865 313.302 232.32 313.39C233.063 313.544 233.784 313.785 234.47 314.11C234.877 314.317 235.277 314.547 235.67 314.8C236.369 315.243 237.016 315.763 237.6 316.35C237.991 316.713 238.275 317.177 238.42 317.69C238.46 317.878 238.46 318.072 238.42 318.26C238.391 318.45 238.319 318.631 238.21 318.79C238.124 318.927 238.012 319.046 237.88 319.14C237.743 319.229 237.59 319.29 237.43 319.32C237.201 319.342 236.97 319.318 236.75 319.25C236.53 319.18 236.327 319.068 236.15 318.92L230.88 315.42L229.23 314.33L227.31 317.23L228.58 318.07C228.116 318.119 227.663 318.244 227.24 318.44C226.315 318.876 225.537 319.571 225 320.44C224.391 321.326 224.045 322.366 224 323.44C223.949 324.312 224.11 325.184 224.47 325.98V326.08C224.53 326.22 224.6 326.35 224.67 326.48C225.26 327.5 226.078 328.369 227.06 329.02C228.041 329.673 229.161 330.087 230.33 330.23C231.392 330.342 232.465 330.158 233.43 329.7C234.387 329.265 235.204 328.573 235.79 327.7C236.399 326.848 236.746 325.837 236.79 324.79C236.805 324.099 236.658 323.414 236.36 322.79C236.831 322.89 237.319 322.89 237.79 322.79C238.287 322.677 238.755 322.463 239.166 322.162C239.577 321.861 239.922 321.479 240.18 321.04C240.736 320.221 241.023 319.249 241 318.26C240.953 317.217 240.606 316.21 240 315.36C239.511 314.592 238.904 313.907 238.2 313.33ZM234.02 321.98C234.302 322.475 234.437 323.041 234.41 323.61C234.372 324.19 234.178 324.75 233.85 325.23C233.529 325.723 233.084 326.123 232.56 326.39C232.042 326.63 231.466 326.716 230.9 326.64C230.259 326.554 229.648 326.314 229.12 325.94C228.563 325.602 228.1 325.131 227.77 324.57L227.68 324.39C227.475 323.953 227.379 323.472 227.4 322.99C227.44 322.402 227.637 321.836 227.97 321.35C228.261 320.894 228.666 320.521 229.144 320.269C229.623 320.016 230.159 319.893 230.7 319.91H230.87C231.522 320.002 232.145 320.241 232.69 320.61C233.239 320.97 233.7 321.448 234.04 322.01L234.02 321.98Z" fill="#FF364E"/>
<path d="M232.67 320.57C233.23 320.921 233.693 321.406 234.02 321.98C234.302 322.475 234.437 323.041 234.41 323.61C234.37 324.187 234.177 324.743 233.85 325.22C233.529 325.713 233.084 326.113 232.56 326.38C232.043 326.623 231.467 326.713 230.9 326.64C230.257 326.548 229.646 326.301 229.12 325.92C228.568 325.586 228.104 325.123 227.77 324.57L227.68 324.39C228.432 324.035 229.093 323.512 229.61 322.86L229.78 322.61L229.98 322.29C230.407 321.566 230.654 320.75 230.7 319.91H230.87C231.517 319.97 232.137 320.198 232.67 320.57Z" fill="#C2D5FF"/>
<path d="M238.48 317.63C238.52 317.821 238.52 318.019 238.48 318.21C238.451 318.4 238.379 318.581 238.27 318.74C238.184 318.877 238.072 318.996 237.94 319.09C237.805 319.18 237.651 319.238 237.49 319.26C237.262 319.285 237.03 319.265 236.81 319.2C236.59 319.13 236.387 319.018 236.21 318.87L230.94 315.37V314.8L234.49 314.08C234.897 314.287 235.297 314.517 235.69 314.77C236.387 315.213 237.034 315.729 237.62 316.31C238.019 316.666 238.316 317.121 238.48 317.63Z" fill="#C2D5FF"/>
<path d="M285.55 303.79L234.42 380.86L233.87 380.57L224.39 333.7C225.602 334.449 226.935 334.98 228.33 335.27C229.82 335.59 231.36 335.59 232.85 335.27C234.375 334.942 235.815 334.302 237.08 333.39C238.478 332.378 239.678 331.117 240.62 329.67C241.199 328.791 241.688 327.856 242.08 326.88C242.456 325.984 242.711 325.043 242.84 324.08L240.42 323.45C240.282 324.33 240.047 325.192 239.72 326.02C239.42 326.818 239.031 327.58 238.56 328.29C237.837 329.409 236.911 330.383 235.83 331.16C234.847 331.85 233.735 332.333 232.56 332.58C231.4 332.83 230.2 332.83 229.04 332.58C226.897 332.082 224.96 330.937 223.49 329.3L222.97 326.74L224.49 325.98V326.08C224.55 326.22 224.62 326.35 224.69 326.48C225.28 327.5 226.098 328.369 227.08 329.02C228.061 329.673 229.181 330.087 230.35 330.23C231.412 330.342 232.485 330.158 233.45 329.7C234.407 329.265 235.224 328.573 235.81 327.7C236.419 326.848 236.767 325.837 236.81 324.79C236.825 324.099 236.678 323.414 236.38 322.79C236.851 322.89 237.339 322.89 237.81 322.79C238.307 322.677 238.775 322.463 239.186 322.162C239.597 321.861 239.942 321.479 240.2 321.04C240.756 320.221 241.043 319.25 241.02 318.26C240.973 317.217 240.626 316.21 240.02 315.36C239.51 314.622 238.89 313.968 238.18 313.42L285.48 303.85L285.55 303.79Z" fill="#C2D5FF"/>
<path d="M224.42 333.65L233.87 380.56L180.14 344.86L219.52 328.12C219.791 328.787 220.126 329.427 220.52 330.03C221.413 331.355 222.567 332.485 223.91 333.35L224.42 333.65Z" fill="#C2D5FF"/>
<path d="M223 326.64L223.52 329.2C222.932 328.552 222.45 327.817 222.09 327.02L223 326.64Z" fill="#C2D5FF"/>
<path d="M180.15 344.86L234.42 380.86L234.04 381.44C233.308 382.537 232.217 383.345 230.953 383.723C229.69 384.101 228.334 384.026 227.12 383.51C226.793 383.381 226.481 383.217 226.19 383.02L177.4 350.66C177.107 350.462 176.833 350.238 176.58 349.99C175.765 349.194 175.211 348.168 174.99 347.05C174.859 346.419 174.842 345.768 174.94 345.13C174.853 345.766 174.877 346.412 175.01 347.04L180.15 344.86Z" fill="#03C7B6"/>
<path d="M234.53 314.07L230.98 314.79V313.19C231.443 313.202 231.904 313.249 232.36 313.33C233.111 313.486 233.84 313.735 234.53 314.07Z" fill="#C2D5FF"/>
<path d="M285.5 303.74L238.2 313.32C237.85 313.04 237.49 312.77 237.11 312.52C235.845 311.67 234.419 311.088 232.92 310.81C232.293 310.699 231.657 310.642 231.02 310.64L231.48 267.91L285.5 303.74Z" fill="#C2D5FF"/>
<path d="M235.4 263.22L284.2 295.57C285.449 296.402 286.316 297.696 286.613 299.168C286.909 300.639 286.609 302.168 285.78 303.42L285.55 303.77L231.48 267.91L231.54 262.32C232.894 262.128 234.27 262.449 235.4 263.22Z" fill="#03C7B6"/>
<path d="M230.68 319.86H230.87C230.742 320.705 230.442 321.515 229.99 322.24L229.79 322.55C229.742 322.639 229.685 322.723 229.62 322.8C229.121 323.482 228.496 324.062 227.78 324.51L227.69 324.35C227.488 323.912 227.392 323.432 227.41 322.95C227.451 322.357 227.648 321.784 227.98 321.29C228.27 320.841 228.671 320.474 229.144 320.223C229.616 319.973 230.145 319.848 230.68 319.86Z" fill="#FBC02E"/>
<path d="M231 313.19V315.38L229.35 314.27L227.43 317.17L228.7 318.01C228.237 318.072 227.786 318.2 227.36 318.39C226.434 318.823 225.655 319.519 225.12 320.39C224.511 321.277 224.165 322.316 224.12 323.39C224.07 324.266 224.231 325.14 224.59 325.94V326.04L223.04 326.7L222.13 327.08C221.834 326.464 221.618 325.812 221.49 325.14C221.26 323.943 221.28 322.71 221.55 321.52C222.185 318.925 223.692 316.627 225.82 315.01C226.77 314.292 227.855 313.772 229.01 313.48C229.657 313.295 230.327 313.197 231 313.19Z" fill="#FBC02E"/>
<path d="M231.54 262.33L231.48 267.91L231.02 310.64C230.195 310.633 229.372 310.727 228.57 310.92C227.096 311.273 225.709 311.919 224.49 312.82C223.131 313.822 221.966 315.062 221.05 316.48C220.075 317.921 219.371 319.527 218.97 321.22C218.611 322.742 218.57 324.322 218.85 325.86C218.997 326.637 219.221 327.398 219.52 328.13L180.14 344.86L175.01 347.04C174.882 346.412 174.858 345.766 174.94 345.13V344.89C174.94 344.72 175.01 344.56 175.05 344.41C175.068 344.285 175.105 344.164 175.16 344.05C175.308 343.615 175.514 343.201 175.77 342.82L227.28 265.16L227.52 264.8C227.97 264.12 228.564 263.546 229.26 263.12C229.951 262.69 230.731 262.42 231.54 262.33Z" fill="#FBC02E"/>
<path d="M225.35 338.08L234.03 379.08" stroke="white" stroke-width="0.75" stroke-miterlimit="10" stroke-linecap="round"/>
<path d="M242.26 312.51L283.71 304.16" stroke="white" stroke-miterlimit="10" stroke-linecap="round"/>
<path d="M120.01 342.19C120.01 342.03 120.11 341.87 120.15 341.7C120.12 341.87 120.07 342.03 120.01 342.19Z" stroke="white" stroke-width="2" stroke-miterlimit="10"/>
<path d="M55.37 323.24L54.87 323.63L55.36 323.24H55.37Z" stroke="white" stroke-width="2" stroke-miterlimit="10"/>
<path d="M55.36 323.24H55.37L54.87 323.63L55.36 323.24Z" stroke="white" stroke-width="2" stroke-miterlimit="10"/>
<path d="M106.44 283.66L106.04 278.29H106.21H106.06L106.44 283.66Z" stroke="white" stroke-width="2" stroke-miterlimit="10"/>
<path d="M120.17 341.71C120.17 341.88 120.08 342.04 120.03 342.2C120.07 342.03 120.12 341.87 120.17 341.71Z" stroke="white" stroke-width="2" stroke-miterlimit="10"/>
<path d="M109.63 326.52H109.94M118.58 341L119.58 340.26M162.75 357.27L168 359.12C168.175 358.336 168.175 357.524 168 356.74C167.826 355.953 167.485 355.213 167 354.57L166.74 354.23L109.84 280.43C109.551 280.055 109.214 279.719 108.84 279.43C108.74 279.36 108.65 279.28 108.54 279.21L108.13 278.96L107.91 278.84L107.31 278.6C106.93 278.452 106.534 278.348 106.13 278.29C104.999 278.143 103.849 278.338 102.83 278.85C102.516 279.011 102.218 279.202 101.94 279.42L55.48 315.14C55.2022 315.356 54.9445 315.597 54.71 315.86C53.8339 316.845 53.3286 318.105 53.2812 319.423C53.2337 320.741 53.647 322.034 54.45 323.08L54.87 323.63L111.35 396.88L111.61 397.22C112.532 398.403 113.885 399.172 115.373 399.36C116.862 399.547 118.363 399.137 119.55 398.22L165.94 362.49C167.019 361.667 167.762 360.48 168.03 359.15L162.75 357.29V357.27ZM106.04 278.27H106.21H106.06L106.44 283.63L106.04 278.27ZM107.1 332.98C107.473 332.747 107.868 332.553 108.28 332.4C107.872 332.561 107.477 332.755 107.1 332.98ZM111.95 326.6H111.53C111.667 326.596 111.804 326.602 111.94 326.62L111.95 326.6ZM111.76 338.33L111.54 338.03C111.474 337.958 111.414 337.881 111.36 337.8C111.282 337.687 111.215 337.566 111.16 337.44C111.217 337.547 111.281 337.65 111.35 337.75C111.402 337.836 111.462 337.916 111.53 337.99L111.75 338.28C111.987 338.559 112.248 338.816 112.53 339.05C112.249 338.845 111.99 338.611 111.76 338.35V338.33ZM120.03 342.18C120.09 342.02 120.14 341.86 120.19 341.7C120.13 341.88 120.08 342.04 120.03 342.2V342.18Z" stroke="white" stroke-width="2" stroke-miterlimit="10"/>
<path d="M106.44 283.66L106.04 278.29H106.21H106.06L106.44 283.66Z" stroke="white" stroke-width="2" stroke-miterlimit="10"/>
<path d="M98.3 328.85L56.72 323.85" stroke="white" stroke-width="2" stroke-miterlimit="10"/>
<path d="M113.35 381.51L111.59 395.01" stroke="white" stroke-width="2" stroke-miterlimit="10"/>
<path d="M117.58 348.98C117.964 348.748 118.335 348.494 118.69 348.22C119.917 347.297 120.938 346.129 121.69 344.79C122.399 343.509 122.842 342.097 122.99 340.64C123.14 339.133 122.98 337.612 122.52 336.17C121.417 332.904 119.242 330.106 116.35 328.23C115.021 327.398 113.532 326.853 111.98 326.63C111.203 326.51 110.414 326.48 109.63 326.54C108.903 326.581 108.182 326.698 107.48 326.89C105.939 327.32 104.498 328.051 103.24 329.04L102.81 329.39C101.709 330.294 100.775 331.383 100.05 332.61C99.2792 333.922 98.7888 335.379 98.61 336.89C98.4338 338.436 98.5767 340.001 99.03 341.49C99.5281 343.149 100.339 344.696 101.42 346.05C102.056 346.885 102.78 347.65 103.58 348.33C104.314 348.972 105.123 349.523 105.99 349.97L107.36 347.86C106.57 347.446 105.826 346.95 105.14 346.38C104.488 345.829 103.895 345.213 103.37 344.54C102.548 343.498 101.931 342.311 101.55 341.04C101.207 339.886 101.102 338.675 101.24 337.48C101.398 336.303 101.8 335.172 102.42 334.16C103.098 333.059 103.977 332.096 105.01 331.32C105.709 330.764 106.484 330.31 107.31 329.97C108.11 329.62 108.961 329.4 109.83 329.32C110.494 329.23 111.166 329.23 111.83 329.32C113.037 329.482 114.195 329.898 115.23 330.54C116.365 331.238 117.362 332.14 118.17 333.2C118.988 334.239 119.618 335.413 120.03 336.67C120.4 337.808 120.539 339.008 120.44 340.2C120.391 340.883 120.246 341.557 120.01 342.2C119.856 342.634 119.662 343.052 119.43 343.45C119.045 344.109 118.578 344.717 118.04 345.26C117.728 345.586 117.394 345.89 117.04 346.17C116.399 346.688 115.702 347.131 114.96 347.49C114.492 347.747 113.964 347.875 113.43 347.86C113.234 347.842 113.043 347.784 112.87 347.69C112.7 347.598 112.55 347.472 112.43 347.32C112.333 347.192 112.261 347.046 112.22 346.89C112.191 346.735 112.191 346.575 112.22 346.42C112.334 345.969 112.617 345.579 113.01 345.33L118.01 341.48L119.58 340.27L117.46 337.52L116.25 338.45C116.352 337.99 116.379 337.518 116.33 337.05C116.217 336.036 115.81 335.077 115.16 334.29C114.525 333.437 113.667 332.776 112.68 332.38C111.87 332.049 110.991 331.922 110.12 332.01H109.94H109.5C108.346 332.245 107.261 332.742 106.329 333.461C105.396 334.18 104.641 335.104 104.12 336.16C103.681 337.137 103.512 338.215 103.63 339.28C103.75 340.33 104.158 341.327 104.81 342.16C105.419 343.01 106.264 343.664 107.24 344.04C107.881 344.267 108.563 344.352 109.24 344.29C108.968 344.69 108.796 345.149 108.74 345.63C108.69 346.135 108.741 346.645 108.89 347.13C109.048 347.611 109.3 348.056 109.63 348.44C110.215 349.239 111.043 349.829 111.99 350.12C112.995 350.42 114.065 350.42 115.07 350.12C115.962 349.876 116.81 349.492 117.58 348.98ZM110.73 342.23C110.17 342.34 109.591 342.288 109.06 342.08C108.529 341.843 108.068 341.475 107.72 341.01C107.369 340.552 107.142 340.011 107.06 339.44C106.989 338.867 107.09 338.286 107.35 337.77C107.644 337.196 108.069 336.699 108.59 336.32C109.091 335.905 109.684 335.617 110.32 335.48H110.52C111 335.436 111.484 335.508 111.93 335.69C112.481 335.91 112.96 336.281 113.31 336.76C113.675 337.206 113.904 337.747 113.97 338.32C114.042 338.817 113.979 339.325 113.79 339.79C113.781 339.847 113.76 339.901 113.73 339.95C113.444 340.545 113.014 341.061 112.48 341.45C111.966 341.843 111.366 342.11 110.73 342.23Z" fill="#FF364E"/>
<path d="M112.5 341.42C111.986 341.832 111.378 342.11 110.73 342.23C110.17 342.34 109.591 342.288 109.06 342.08C108.532 341.84 108.071 341.473 107.72 341.01C107.367 340.546 107.14 339.998 107.06 339.42C106.99 338.854 107.091 338.279 107.35 337.77C107.644 337.197 108.069 336.7 108.59 336.32C109.091 335.906 109.684 335.618 110.32 335.48H110.52C110.612 336.316 110.899 337.118 111.36 337.82C111.414 337.901 111.474 337.978 111.54 338.05L111.76 338.35C112.307 338.978 112.991 339.471 113.76 339.79C113.751 339.847 113.73 339.902 113.7 339.95C113.422 340.528 113.011 341.032 112.5 341.42Z" fill="#C2D5FF"/>
<path d="M113.41 347.86C113.214 347.851 113.022 347.796 112.85 347.7C112.68 347.608 112.53 347.482 112.41 347.33C112.313 347.202 112.241 347.056 112.2 346.9C112.17 346.742 112.17 346.579 112.2 346.42C112.315 345.975 112.598 345.592 112.99 345.35L117.99 341.48L118.52 341.7L118.05 345.29C117.741 345.626 117.407 345.937 117.05 346.22C116.405 346.732 115.707 347.174 114.97 347.54C114.488 347.786 113.949 347.896 113.41 347.86Z" fill="#C2D5FF"/>
<path d="M111.35 396.88L54.87 323.63L55.36 323.24L102.78 329.39C101.679 330.294 100.745 331.384 100.02 332.61C99.2492 333.922 98.7588 335.379 98.58 336.89C98.4038 338.436 98.5467 340.002 99 341.49C99.4981 343.149 100.309 344.697 101.39 346.05C102.026 346.886 102.75 347.65 103.55 348.33C104.277 348.975 105.08 349.529 105.94 349.98L107.31 347.87C106.52 347.457 105.776 346.961 105.09 346.39C104.438 345.84 103.845 345.223 103.32 344.55C102.498 343.509 101.881 342.321 101.5 341.05C101.157 339.897 101.052 338.686 101.19 337.49C101.348 336.314 101.75 335.183 102.37 334.17C103.048 333.07 103.927 332.107 104.96 331.33C105.659 330.774 106.434 330.32 107.26 329.98L109.86 330.3L110.09 331.99H109.98L109.54 332.05C108.384 332.281 107.297 332.775 106.364 333.495C105.431 334.215 104.676 335.141 104.16 336.2C103.72 337.17 103.55 338.242 103.67 339.3C103.79 340.357 104.198 341.36 104.85 342.2C105.462 343.048 106.306 343.701 107.28 344.08C107.922 344.301 108.605 344.379 109.28 344.31C109.01 344.711 108.839 345.171 108.78 345.65C108.73 346.159 108.781 346.672 108.93 347.16C109.09 347.643 109.342 348.091 109.67 348.48C110.259 349.274 111.086 349.859 112.03 350.15C113.035 350.45 114.105 350.45 115.11 350.15C115.97 349.905 116.786 349.527 117.53 349.03L111.34 396.9L111.35 396.88Z" fill="#C2D5FF"/>
<path d="M102.78 329.39L55.36 323.24L106.45 283.86L109.6 326.57C108.873 326.611 108.152 326.729 107.45 326.92C105.909 327.351 104.468 328.081 103.21 329.07L102.78 329.39Z" fill="#C2D5FF"/>
<path d="M109.87 330.29L107.27 329.97C108.07 329.62 108.921 329.401 109.79 329.32L109.87 330.29Z" fill="#C2D5FF"/>
<path d="M106.45 283.86L54.87 323.63L54.45 323.08C53.647 322.034 53.2337 320.741 53.2812 319.424C53.3286 318.106 53.8339 316.846 54.71 315.86C54.9445 315.598 55.2022 315.357 55.48 315.14L101.87 279.4C102.148 279.183 102.446 278.992 102.76 278.83C103.779 278.318 104.929 278.123 106.06 278.27C106.703 278.352 107.326 278.549 107.9 278.85C107.324 278.559 106.701 278.373 106.06 278.3L106.45 283.86Z" fill="#03C7B6"/>
<path d="M118.06 345.26L118.53 341.67L120.03 342.2C119.878 342.638 119.683 343.06 119.45 343.46C119.067 344.118 118.6 344.723 118.06 345.26Z" fill="#C2D5FF"/>
<path d="M111.39 396.85L117.58 348.98C117.963 348.746 118.333 348.492 118.69 348.22C119.917 347.297 120.938 346.129 121.69 344.79C122.003 344.236 122.261 343.654 122.46 343.05L162.76 357.26L111.39 396.85Z" fill="#C2D5FF"/>
<path d="M165.94 362.49L119.57 398.24C118.383 399.157 116.882 399.567 115.393 399.38C113.905 399.192 112.552 398.423 111.63 397.24L111.37 396.9L162.75 357.29L168.03 359.15C167.762 360.48 167.019 361.667 165.94 362.49Z" fill="#03C7B6"/>
<path d="M113.81 339.76C113.799 339.814 113.779 339.864 113.75 339.91C112.989 339.503 112.31 338.957 111.75 338.3L111.53 338.01C111.462 337.937 111.402 337.856 111.35 337.77C110.878 337.075 110.539 336.299 110.35 335.48H110.55C111.03 335.436 111.514 335.508 111.96 335.69C112.511 335.91 112.99 336.281 113.34 336.76C113.705 337.206 113.934 337.748 114 338.32C114.062 338.809 113.997 339.305 113.81 339.76Z" fill="#FBC02E"/>
<path d="M120.03 342.2L118.53 341.67L117.97 341.48L119.54 340.29L117.42 337.54L116.21 338.45C116.311 337.998 116.338 337.531 116.29 337.07C116.178 336.053 115.772 335.09 115.12 334.3C114.485 333.448 113.627 332.787 112.64 332.39C111.828 332.065 110.951 331.935 110.08 332.01H109.94L109.82 330.33L109.74 329.33C110.404 329.24 111.076 329.24 111.74 329.33C112.945 329.494 114.103 329.906 115.14 330.54C116.276 331.245 117.273 332.154 118.08 333.22C118.9 334.258 119.53 335.433 119.94 336.69C120.31 337.821 120.449 339.015 120.35 340.2C120.339 340.879 120.231 341.552 120.03 342.2Z" fill="#FBC02E"/>
<path d="M168 359.12L162.73 357.26L122.43 343.05C122.702 342.271 122.88 341.462 122.96 340.64C123.109 339.13 122.949 337.606 122.49 336.16C121.384 332.898 119.21 330.104 116.32 328.23C114.316 326.967 111.963 326.372 109.6 326.53L106.45 283.85L106.04 278.29C106.678 278.377 107.299 278.562 107.88 278.84L108.1 278.96L108.51 279.21C108.62 279.28 108.71 279.36 108.81 279.43C109.184 279.72 109.521 280.056 109.81 280.43L166.71 354.23L166.97 354.57C167.455 355.213 167.796 355.953 167.97 356.74C168.155 357.522 168.165 358.334 168 359.12Z" fill="#FBC02E"/>
<path d="M98.3 328.85L56.72 323.85" stroke="white" stroke-miterlimit="10" stroke-linecap="round"/>
<path d="M117.05 353.1L111.59 394.98" stroke="white" stroke-width="0.75" stroke-miterlimit="10" stroke-linecap="round"/>
<path d="M281.81 324.08L276.94 343.48L270.94 367.48L259.74 412.48C258.29 418.32 252.16 423.04 246.06 423.04H72.53C66.43 423.04 62.66 418.32 64.11 412.48L81.26 343.61C82.71 337.77 88.84 333.04 94.94 333.04H177.8C180.449 333.046 183.024 332.161 185.11 330.53C187.197 328.898 188.676 326.613 189.31 324.04C190.77 318.26 196.87 313.57 202.99 313.57H273.39C279.49 313.57 283.26 318.26 281.81 324.08Z" fill="#647BDC" stroke="white" stroke-width="2" stroke-miterlimit="10"/>
<path d="M72.62 244.83C59.56 249.19 61.52 265.98 61.52 265.98C58.87 250.09 44.87 249.53 44.87 249.53C57.32 245.37 55.31 229.98 55.09 228.53C57.76 244.35 72.62 244.83 72.62 244.83Z" fill="#FBC02E" stroke="white" stroke-linejoin="round"/>
<path d="M84.5012 237.217C84.039 237.526 83.4958 237.69 82.94 237.69C82.1947 237.69 81.48 237.394 80.953 236.867C80.4261 236.34 80.13 235.626 80.13 234.88C80.13 234.325 80.2948 233.781 80.6036 233.319C80.9123 232.857 81.3512 232.497 81.8647 232.284C82.3781 232.072 82.9431 232.016 83.4882 232.124C84.0333 232.233 84.534 232.5 84.927 232.893C85.32 233.286 85.5876 233.787 85.696 234.332C85.8044 234.877 85.7488 235.442 85.5361 235.956C85.3234 236.469 84.9633 236.908 84.5012 237.217Z" fill="#FBC02E" stroke="white"/>
<path d="M389.17 403.84H377.57V415.45H389.17V403.84Z" fill="#C1D0EB" stroke="white" stroke-miterlimit="10"/>
<path d="M379.08 429.01C378.55 429.01 378.041 428.799 377.666 428.424C377.291 428.049 377.08 427.541 377.08 427.01V414.95H389.18C390.04 415.03 409.24 417 412.42 425.95C412.543 426.297 412.58 426.668 412.528 427.032C412.475 427.396 412.336 427.742 412.12 428.04C411.903 428.348 411.615 428.599 411.281 428.773C410.947 428.947 410.577 429.039 410.2 429.04L379.08 429.01Z" fill="#312855"/>
<path d="M389.17 415.45C389.17 415.45 408.83 417.36 411.94 426.1C412.032 426.376 412.057 426.671 412.013 426.959C411.969 427.247 411.856 427.52 411.685 427.755C411.514 427.991 411.289 428.183 411.029 428.314C410.769 428.445 410.481 428.512 410.19 428.51H379.08C378.68 428.51 378.295 428.351 378.012 428.068C377.729 427.785 377.57 427.401 377.57 427V415.45H389.17ZM389.22 414.45H376.57V427C376.573 427.665 376.838 428.302 377.308 428.772C377.778 429.242 378.415 429.508 379.08 429.51H410.19C410.646 429.509 411.094 429.399 411.499 429.191C411.904 428.982 412.254 428.68 412.52 428.31C412.78 427.947 412.948 427.526 413.01 427.084C413.073 426.642 413.028 426.191 412.88 425.77C409.6 416.53 390.1 414.54 389.27 414.45H389.22Z" fill="white"/>
<path d="M273.04 429.38L272.9 429.26C263.34 421.26 263.22 404.5 263.62 397.66C263.671 396.709 264.023 395.798 264.625 395.059C265.227 394.321 266.048 393.792 266.97 393.55C268.606 393.149 270.285 392.951 271.97 392.96C274.955 392.962 277.916 393.486 280.72 394.51L281.48 394.81L280.86 395.35C279.86 396.15 275.48 400.42 279.18 406.94L283.32 408.13L283.38 408.43C284.92 416.32 286.88 419.9 287.38 420.75C292.69 420.88 294.38 424.8 294.98 427.15C295.04 427.415 295.041 427.689 294.982 427.954C294.923 428.218 294.806 428.466 294.64 428.68C294.467 428.899 294.246 429.075 293.995 429.196C293.744 429.318 293.469 429.38 293.19 429.38H273.04Z" fill="#312855"/>
<path d="M271.94 393.46C274.862 393.47 277.761 393.981 280.51 394.97C280.23 395.21 274.51 399.97 278.83 407.36L282.83 408.53C284.66 417.92 287.07 421.25 287.07 421.25C292.26 421.25 293.92 425.03 294.45 427.25C294.494 427.444 294.493 427.646 294.448 427.839C294.403 428.033 294.314 428.214 294.189 428.369C294.064 428.524 293.906 428.649 293.726 428.734C293.546 428.819 293.349 428.862 293.15 428.86H273.15C263.72 420.99 263.67 404.23 264.05 397.67C264.096 396.82 264.411 396.007 264.951 395.349C265.49 394.69 266.226 394.221 267.05 394.01C268.638 393.625 270.266 393.434 271.9 393.44M271.9 392.44C270.182 392.431 268.469 392.632 266.8 393.04C265.774 393.308 264.86 393.895 264.189 394.716C263.519 395.538 263.127 396.551 263.07 397.61C262.67 404.53 262.79 421.5 272.53 429.61L272.81 429.84H293.14C293.494 429.84 293.844 429.761 294.162 429.606C294.481 429.452 294.761 429.228 294.98 428.95C295.197 428.68 295.349 428.363 295.423 428.025C295.498 427.687 295.493 427.336 295.41 427C294.41 422.88 291.61 420.43 287.63 420.22C286.99 419.11 285.21 415.55 283.8 408.3L283.68 407.7L283.1 407.53L279.45 406.47C276.12 400.4 280.23 396.47 281.1 395.7L282.36 394.63L280.83 394C277.966 392.963 274.945 392.429 271.9 392.42V392.44Z" fill="white"/>
<path d="M282.87 408.53L278.87 407.36C274.54 399.97 280.27 395.21 280.55 394.97L285.14 395.49C283.856 397.377 282.99 399.516 282.598 401.765C282.207 404.013 282.299 406.32 282.87 408.53Z" fill="#C1D0EB" stroke="white" stroke-miterlimit="10"/>
<path d="M391 407.55L374.17 408.55C369.77 399.26 365.1 369.46 363.66 359.78C363.533 358.924 363.103 358.142 362.447 357.576C361.792 357.011 360.955 356.7 360.09 356.7H334.09C334.09 356.7 359.52 388.81 364.8 403.88C370.08 418.95 358.74 428.53 345.43 428.53C332.12 428.53 282.89 408.53 282.89 408.53C282.32 406.328 282.223 404.031 282.608 401.79C282.992 399.549 283.849 397.415 285.12 395.53C285.279 395.305 285.449 395.088 285.63 394.88C303.99 395.19 320.75 399.79 328.72 401.98C328.893 402.024 329.077 402.009 329.241 401.938C329.405 401.867 329.541 401.744 329.628 401.588C329.715 401.431 329.747 401.25 329.721 401.073C329.694 400.897 329.609 400.733 329.48 400.61C321.4 393 298.48 371.26 290.72 357.96C281.52 342.12 287.91 318.57 287.91 318.57C298.67 300.96 335.28 320.87 335.28 320.87C335.28 320.87 377.91 325.62 384.56 332.87C391.21 340.12 391 407.55 391 407.55Z" fill="#3F51B5" stroke="white" stroke-miterlimit="10"/>
<path d="M317.87 243.7L356.23 253.88C357.26 254.153 358.336 254.209 359.389 254.046C360.443 253.882 361.451 253.502 362.35 252.93L382.78 239.88C382.78 239.88 389.78 241.88 391.39 249.27C391.39 249.27 373.66 268.27 364.2 270.6C354.74 272.93 326.08 265.36 316.6 263.16C314.516 262.674 312.639 261.54 311.24 259.92C308.18 256.38 303.95 249.92 308.96 245.58C310.18 244.565 311.629 243.863 313.182 243.536C314.735 243.208 316.344 243.264 317.87 243.7Z" fill="#03C7B6"/>
<path d="M338.25 218.48C337.93 227.55 335.98 237.84 328.78 238.71C326.096 239.011 323.379 238.787 320.78 238.05C320.573 237.977 320.35 237.956 320.133 237.99C319.915 238.024 319.71 238.111 319.534 238.244C319.359 238.376 319.219 238.551 319.128 238.751C319.036 238.951 318.996 239.17 319.01 239.39L319.43 244.49L320.13 253.05L319.4 252.67C316.91 251.35 308.73 246.75 305.95 242.13C305.794 241.865 305.654 241.591 305.53 241.31C306.218 238.743 306.669 236.119 306.88 233.47C307.04 230.83 306.8 228.24 305.53 226.97C302.4 223.84 300.53 217.31 305.53 216.53C310.17 215.8 312.06 223.75 312.29 224.77H312.38C312.88 224.08 316 219.57 313.38 215.77C313.38 215.77 324.08 220.61 331.89 207.63C331.906 207.591 331.932 207.558 331.967 207.534C332.002 207.51 332.043 207.498 332.085 207.498C332.127 207.498 332.168 207.51 332.203 207.534C332.238 207.558 332.264 207.591 332.28 207.63C332.58 208.41 333.61 209.43 337.18 205.08C337.218 205.032 337.27 204.997 337.328 204.978C337.387 204.96 337.45 204.959 337.508 204.976C337.567 204.993 337.62 205.028 337.659 205.074C337.699 205.121 337.723 205.179 337.73 205.24C338.201 209.637 338.375 214.06 338.25 218.48Z" fill="#C1D0EB" stroke="white" stroke-miterlimit="10"/>
<path d="M338.25 218.48C338.377 214.067 338.207 209.65 337.74 205.26C337.733 205.199 337.709 205.142 337.669 205.095C337.63 205.048 337.577 205.013 337.518 204.996C337.46 204.979 337.397 204.98 337.338 204.998C337.28 205.017 337.228 205.052 337.19 205.1C333.62 209.45 332.59 208.43 332.29 207.65C332.274 207.611 332.247 207.578 332.213 207.554C332.178 207.531 332.137 207.518 332.095 207.518C332.053 207.518 332.012 207.531 331.977 207.554C331.942 207.578 331.916 207.611 331.9 207.65C324.09 220.65 313.39 215.79 313.39 215.79C316.04 219.63 312.92 224.14 312.39 224.79H312.3C312.07 223.79 310.18 215.79 305.54 216.55C300.54 217.33 302.41 223.86 305.54 226.99C306.81 228.26 307.05 230.85 306.89 233.49C303.68 232.13 289.51 224.79 294.84 202.99C294.84 202.99 288.32 196.2 291.19 193.6C294.06 191 296.14 200.9 296.14 200.9C296.14 200.9 295.71 194.03 298.67 193.16C301.63 192.29 297.67 200.26 297.46 200.63C297.92 200.2 309.01 190.05 320.19 193.1C320.19 193.1 328.75 184.99 328.75 191.25C328.75 191.25 336.67 187.82 340.49 192.81C343.88 197.25 340.8 204.55 340.8 204.55C340.8 204.55 345.08 212.98 338.25 218.48Z" fill="#312855"/>
<path d="M327.98 220.55C329.455 220.55 330.65 219.355 330.65 217.88C330.65 216.405 329.455 215.21 327.98 215.21C326.505 215.21 325.31 216.405 325.31 217.88C325.31 219.355 326.505 220.55 327.98 220.55Z" fill="white"/>
<path d="M328.88 219.85C329.83 219.85 330.6 219.08 330.6 218.13C330.6 217.18 329.83 216.41 328.88 216.41C327.93 216.41 327.16 217.18 327.16 218.13C327.16 219.08 327.93 219.85 328.88 219.85Z" fill="#312855"/>
<path d="M335.22 220.55C336.695 220.55 337.89 219.355 337.89 217.88C337.89 216.405 336.695 215.21 335.22 215.21C333.745 215.21 332.55 216.405 332.55 217.88C332.55 219.355 333.745 220.55 335.22 220.55Z" fill="white"/>
<path d="M336.11 219.85C337.06 219.85 337.83 219.08 337.83 218.13C337.83 217.18 337.06 216.41 336.11 216.41C335.16 216.41 334.39 217.18 334.39 218.13C334.39 219.08 335.16 219.85 336.11 219.85Z" fill="#312855"/>
<path d="M333.31 218.19C333.98 219.08 334.53 222.83 334.53 222.83C334.53 222.83 337.27 222.34 337 224.48C336.73 226.62 332 226.82 331.52 224.48C331.04 222.14 331.42 215.68 333.31 218.19Z" fill="#EF4D56"/>
<path d="M333.47 214.04C334.108 213.538 334.905 213.279 335.716 213.31C336.528 213.341 337.302 213.66 337.9 214.21" stroke="#302356" stroke-miterlimit="10" stroke-linecap="round"/>
<path d="M325.77 214.04C326.408 213.538 327.205 213.279 328.016 213.31C328.828 213.341 329.602 213.66 330.2 214.21" stroke="#302356" stroke-miterlimit="10" stroke-linecap="round"/>
<path d="M330.2 229.02C330.2 229.02 326.34 229.26 324.97 226.16" stroke="#302356" stroke-miterlimit="10" stroke-linecap="round"/>
<path d="M320.17 253.05L318.12 262.48C318.12 262.48 304.18 251.1 305.57 241.31C305.57 241.31 312.18 248.7 319.44 252.67L320.17 253.05Z" fill="white"/>
<path d="M328.87 258.47C325.87 253.97 320.16 253.05 320.16 253.05L319.46 244.49C323.044 246.107 325.847 249.071 327.26 252.74C328.055 254.568 328.597 256.496 328.87 258.47Z" fill="white"/>
<path d="M335.26 320.88C303.47 333.88 287.89 318.58 287.89 318.58C287.89 318.58 286.42 288.88 286.87 267.88C287.32 246.88 305.62 241.33 305.62 241.33C304.23 251.12 318.17 262.5 318.17 262.5L320.22 253.07C320.22 253.07 325.89 253.99 328.93 258.49C328.657 256.516 328.115 254.588 327.32 252.76C339.16 268.24 335.26 320.88 335.26 320.88Z" fill="#03C7B6"/>
<path d="M372.14 266.36C372.64 257.74 373.66 240.43 374.14 231.81C374.3 228.99 376.41 226.81 378.85 226.96L390.63 227.65L904.25 257.79C906.68 257.94 908.52 260.34 908.36 263.17L906.36 297.71C906.2 300.53 904.09 302.71 901.65 302.56L376.25 271.73C373.81 271.59 371.97 269.18 372.14 266.36Z" fill="white" stroke="#D3DAEE" stroke-miterlimit="10"/>
<path d="M402.81 243.71L391.42 243.04C391.156 243.024 390.892 243.06 390.643 243.146C390.393 243.233 390.163 243.368 389.966 243.543C389.769 243.719 389.609 243.932 389.495 244.17C389.38 244.408 389.314 244.666 389.3 244.93L388.63 256.33C388.614 256.593 388.65 256.856 388.735 257.105C388.821 257.354 388.955 257.583 389.13 257.78C389.305 257.977 389.516 258.138 389.753 258.253C389.99 258.368 390.247 258.435 390.51 258.45L401.91 259.12C402.174 259.136 402.438 259.1 402.687 259.014C402.937 258.927 403.167 258.792 403.364 258.617C403.561 258.441 403.721 258.228 403.836 257.99C403.95 257.752 404.016 257.494 404.03 257.23L404.7 245.83C404.716 245.566 404.68 245.302 404.594 245.053C404.507 244.803 404.372 244.573 404.197 244.376C404.021 244.179 403.808 244.019 403.57 243.904C403.332 243.79 403.074 243.724 402.81 243.71Z" fill="#ECEFF8"/>
<path d="M504.84 252.819L424.398 248.097C422.562 247.989 420.987 249.39 420.879 251.226L420.728 253.801C420.62 255.637 422.021 257.213 423.857 257.321L504.298 262.043C506.134 262.151 507.71 260.75 507.818 258.914L507.969 256.339C508.077 254.503 506.676 252.927 504.84 252.819Z" fill="#ECEFF8"/>
<path d="M879.78 274.826L610.923 259.041C609.087 258.933 607.511 260.334 607.403 262.17L607.252 264.746C607.144 266.581 608.545 268.157 610.381 268.265L879.238 284.05C881.074 284.157 882.65 282.757 882.758 280.921L882.909 278.345C883.017 276.509 881.616 274.933 879.78 274.826Z" fill="#ECEFF8"/>
<path d="M598.823 257.282L561.706 255.103C561.045 255.064 560.477 255.569 560.438 256.23L559.915 265.145C559.876 265.806 560.381 266.374 561.042 266.413L598.159 268.592C598.82 268.631 599.388 268.126 599.427 267.465L599.95 258.55C599.989 257.888 599.484 257.32 598.823 257.282Z" fill="#FDBE10"/>
<path d="M553.039 254.593L515.923 252.414C515.261 252.375 514.693 252.88 514.655 253.542L514.131 262.456C514.092 263.118 514.597 263.686 515.259 263.725L552.375 265.904C553.037 265.943 553.604 265.438 553.643 264.776L554.167 255.861C554.205 255.2 553.701 254.632 553.039 254.593Z" fill="#ED332E"/>
<path d="M330.78 259.45C333.24 266.04 334.57 274.85 335.24 283.74" stroke="#52FFEA" stroke-width="1.33" stroke-linecap="round" stroke-linejoin="round"/>
<path d="M374.25 276L382.78 272.95L394.19 264.45C394.619 264.132 395.144 263.969 395.678 263.989C396.212 264.009 396.723 264.21 397.127 264.56C397.531 264.909 397.804 265.386 397.901 265.911C397.998 266.437 397.913 266.979 397.66 267.45C397.366 267.956 397.032 268.438 396.66 268.89C392.76 273.74 392.66 272.71 392.66 272.71L406.4 273.51C406.4 273.51 402.4 281.66 388.57 282.44C388.57 282.44 386.57 281.37 379.31 284.5C372.05 287.63 368.81 277.95 374.25 276Z" fill="#C1D0EB" stroke="white" stroke-linecap="round" stroke-linejoin="round"/>
<path d="M295.87 262.61C295.517 260.962 295.621 259.248 296.171 257.655C296.722 256.061 297.698 254.649 298.994 253.571C300.29 252.492 301.856 251.789 303.522 251.537C305.189 251.284 306.893 251.493 308.45 252.14C311.899 253.616 315.017 255.768 317.62 258.47C328.62 269.23 335.47 283.37 345.62 281.61C355.77 279.85 373.35 275.1 373.35 275.1C373.35 275.1 379.61 281.36 380.59 285.86C380.59 285.86 354.38 303.29 342.1 302.49C330.2 301.71 299.49 279.4 295.87 262.61Z" fill="#03C7B6"/>
<path d="M335.87 300.88C321.87 295.35 298.96 276.97 295.87 262.63" stroke="#52FFEA" stroke-width="1.33" stroke-linecap="round" stroke-linejoin="round"/>
<path d="M305.47 251.48C316.31 253.05 326.93 270.29 332.2 275.01" stroke="#52FFEA" stroke-width="1.33" stroke-linecap="round" stroke-linejoin="round"/>
<path d="M330.16 326.75C331.584 328.671 332.565 330.882 333.034 333.227C333.502 335.571 333.446 337.99 332.87 340.31" stroke="#E8ECF6" stroke-miterlimit="10" stroke-linecap="round"/>
<path d="M330.16 351.53L334.07 356.68" stroke="#E8ECF6" stroke-miterlimit="10" stroke-linecap="round"/>
<path d="M276.09 421.981C276.09 421.981 281.95 419.361 287.09 421.251" stroke="#E8ECF6" stroke-miterlimit="10" stroke-linecap="round"/>
<path d="M380.63 227.31C380.63 227.31 382.09 222.96 387.25 225.01C387.25 225.01 389.47 220.17 394.15 223.74C394.15 223.74 397.26 221.33 399.22 224.8C399.22 224.8 403.73 222.55 404.7 228.48C405.67 234.41 398.24 233.48 398.24 233.48C398.24 233.48 395.24 235.6 392.71 233.15C392.71 233.15 387.89 234.75 387.71 228.08L380.63 227.31Z" fill="#C1D0EB" stroke="white" stroke-width="0.5" stroke-linecap="round" stroke-linejoin="round"/>
<path d="M394.15 223.74C394.15 223.74 395.33 229.13 392.71 233.14" stroke="white" stroke-miterlimit="10" stroke-linecap="round"/>
<path d="M399.22 224.8C399.22 224.8 401.04 230.58 398.22 233.47" stroke="white" stroke-miterlimit="10" stroke-linecap="round"/>
<path d="M907.2 251.74L907.05 239.38" stroke="#4554A4" stroke-width="2" stroke-linecap="round" stroke-linejoin="round"/>
<path d="M915.64 259.1L929.15 257.31" stroke="#4554A4" stroke-width="2" stroke-linecap="round" stroke-linejoin="round"/>
<path d="M912.46 254.66L920.89 244.38" stroke="#4554A4" stroke-width="2" stroke-linecap="round" stroke-linejoin="round"/>
</g>
</g>
<defs>
<linearGradient id="paint0_linear_1140_6189" x1="484.5" y1="0" x2="484.5" y2="456" gradientUnits="userSpaceOnUse">
<stop stop-color="#BFC6F1"/>
<stop offset="1" stop-color="#BFC6F1" stop-opacity="0"/>
</linearGradient>
<linearGradient id="paint1_linear_1140_6189" x1="785.34" y1="65.1798" x2="820.99" y2="100.82" gradientUnits="userSpaceOnUse">
<stop stop-color="#F7BE27"/>
<stop offset="1" stop-color="#F16858"/>
</linearGradient>
<clipPath id="clip0_1140_6189">
<rect width="969" height="456" fill="white"/>
</clipPath>
<clipPath id="clip1_1140_6189">
<rect width="891.15" height="403.88" fill="white" transform="translate(39 26)"/>
</clipPath>
</defs>
</svg>
